<?xml version="1.0" encoding="UTF-8"?>
<svg version="1.1" xmlns="http://www.w3.org/2000/svg" width="6710" height="2000">
<path d="M0 0 C1.6871965 0.00223572 1.6871965 0.00223572 3.40847778 0.0045166 C19.7701941 0.04351222 35.7873178 0.45888493 51.9375 3.3125 C52.81132324 3.45703613 53.68514648 3.60157227 54.58544922 3.75048828 C86.82699921 9.15701003 119.40438327 21.1104115 143.9375 43.3125 C144.93007812 44.17488281 145.92265625 45.03726563 146.9453125 45.92578125 C153.68646814 51.85017932 159.48594851 58.15669701 164.9375 65.3125 C165.91783203 66.55193359 165.91783203 66.55193359 166.91796875 67.81640625 C198.55152524 109.17365077 206.18475995 164.31033479 206.125 214.875 C206.12439575 215.82236023 206.1237915 216.76972046 206.12316895 217.74578857 C206.07267441 247.04555227 203.91514162 276.40820901 198.9375 305.3125 C195.91966954 304.70909956 193.89849471 303.78861188 191.40234375 302.00390625 C168.52975825 286.16703933 142.77869338 273.52136652 116.9375 263.3125 C116.27588867 263.04695313 115.61427734 262.78140625 114.93261719 262.5078125 C70.58532265 245.05969662 17.00788214 249.03300819 -26.12597656 267.62744141 C-30.14940268 269.43476002 -34.11432057 271.34691929 -38.0625 273.3125 C-38.78695312 273.66924805 -39.51140625 274.02599609 -40.2578125 274.39355469 C-56.87327646 282.64841928 -72.74856736 292.48832946 -87.0625 304.3125 C-87.63838867 304.786875 -88.21427734 305.26125 -88.80761719 305.75 C-101.35220107 316.14853256 -112.40263063 327.16972476 -122.0625 340.3125 C-122.47999512 340.88033203 -122.89749023 341.44816406 -123.32763672 342.03320312 C-149.93998303 378.81123348 -162.33731207 424.30250748 -171.16015625 468.20703125 C-171.30664738 468.93544472 -171.4531385 469.66385818 -171.60406876 470.41434479 C-176.3940468 494.3688014 -180.34244569 518.48202686 -184.4375 542.5625 C-189.07994088 569.85824223 -193.73962846 597.14409085 -198.94140625 624.33984375 C-199.21716806 625.78715 -199.21716806 625.78715 -199.49850082 627.26369476 C-210.65635496 685.65633613 -229.7572507 745.14207468 -264.0625 794.3125 C-264.49546387 794.93930664 -264.92842773 795.56611328 -265.37451172 796.21191406 C-270.644152 803.81859362 -276.19615005 811.15415631 -282.0625 818.3125 C-283.03703125 819.54806641 -283.03703125 819.54806641 -284.03125 820.80859375 C-296.48798212 836.44922942 -310.76605217 851.42254577 -326.0625 864.3125 C-326.99191406 865.11945312 -327.92132812 865.92640625 -328.87890625 866.7578125 C-403.7609213 931.50126793 -499.13383129 963.23259882 -613.0625 974.3125 C-613.71634674 974.35453552 -614.37019348 974.39657104 -615.04385376 974.43988037 C-630.14893889 975.38000022 -645.24371844 975.55514588 -660.375 975.5625 C-661.63717346 975.56317474 -662.89934692 975.56384949 -664.19976807 975.56454468 C-711.00422498 975.52522185 -757.39210185 971.30652316 -803.625 964.125 C-804.44735138 963.99862152 -805.26970276 963.87224304 -806.11697388 963.74203491 C-808.41422612 963.38551309 -810.70928756 963.0175869 -813.00390625 962.64453125 C-814.94825562 962.33092651 -814.94825562 962.33092651 -816.93188477 962.01098633 C-820.0625 961.3125 -820.0625 961.3125 -823.0625 959.3125 C-823.93481445 956.39404297 -823.93481445 956.39404297 -824.61328125 952.6796875 C-824.73633133 952.01049286 -824.85938141 951.34129822 -824.98616028 950.65182495 C-831.71342692 913.14865918 -834.15784778 871.8958847 -827.0625 834.3125 C-826.88557617 833.3436084 -826.70865234 832.3747168 -826.52636719 831.37646484 C-819.25516377 792.52764314 -801.99168878 753.13260431 -771.0625 727.3125 C-770.28519531 726.62414063 -769.50789063 725.93578125 -768.70703125 725.2265625 C-733.68829395 695.02886165 -685.68315019 689.97962966 -641.6875 683.75 C-604.39924234 678.72344009 -604.39924234 678.72344009 -568.125 669 C-566.42718384 668.42306396 -566.42718384 668.42306396 -564.69506836 667.83447266 C-555.70953505 664.70242021 -547.34721739 660.97084517 -539.0625 656.3125 C-537.50982422 655.48685547 -537.50982422 655.48685547 -535.92578125 654.64453125 C-506.83044556 638.63258834 -487.03854003 611.34186058 -477.72087097 579.7301178 C-472.60069129 560.92819903 -470.28197584 541.34231662 -467.56219864 522.07899475 C-467.13645429 519.07341373 -466.70482059 516.06868958 -466.27320004 513.06394768 C-463.72698768 495.33483759 -461.27159303 477.59438293 -458.86401367 459.84594727 C-454.15178456 425.12071059 -449.13476323 390.44370986 -441.0625 356.3125 C-440.77826172 355.10577637 -440.49402344 353.89905273 -440.20117188 352.65576172 C-420.26666393 269.22575574 -378.66584838 187.90020094 -311.234375 129.20703125 C-309.09268735 127.33883249 -307.01611651 125.41027435 -304.94238281 123.46728516 C-298.56913822 117.51795852 -291.89045705 112.10433959 -284.97705078 106.79882812 C-283.0060207 105.26865328 -281.06213565 103.70862661 -279.12109375 102.140625 C-237.76963662 68.95957186 -189.86803293 44.05243814 -140.0625 26.3125 C-139.06186523 25.94946777 -138.06123047 25.58643555 -137.03027344 25.21240234 C-107.11582723 14.42397575 -75.60008535 6.50751807 -44.0625 2.3125 C-43.39721283 2.22247711 -42.73192566 2.13245422 -42.04647827 2.03970337 C-28.03590666 0.19566739 -14.11690125 -0.04624531 0 0 Z " fill="#03A4F3" transform="translate(1170.0625,594.6875)"/>
<path d="M0 0 C6.52674331 0.91514921 12.12243401 3.25442188 18.1875 5.75 C19.37351807 6.23662109 20.55953613 6.72324219 21.78149414 7.22460938 C41.80565771 15.52056909 61.23321849 25.16063191 80 36 C81.23024902 36.70890381 81.23024902 36.70890381 82.48535156 37.43212891 C106.68821074 51.46379039 129.96120171 67.53059518 151 86 C151.7321875 86.63292969 152.464375 87.26585937 153.21875 87.91796875 C155.15763749 89.59910731 157.07917227 91.29826597 159 93 C160.03761475 93.91036011 160.03761475 93.91036011 161.09619141 94.83911133 C167.7948382 100.77927431 174.16200447 107.00803473 180.47827148 113.34790039 C182.19207233 115.0670867 183.91119082 116.78082583 185.63085938 118.49414062 C191.29930748 124.15849573 196.85180705 129.85120742 202 136 C202.53278564 136.62608154 203.06557129 137.25216309 203.61450195 137.8972168 C262.60546363 207.51797201 301.55837858 294.43113392 313 385 C313.12535126 385.98821747 313.12535126 385.98821747 313.25323486 386.99639893 C318.36018399 427.98688299 317.88171162 470.13514903 312 511 C311.89109436 511.75800903 311.78218872 512.51601807 311.66998291 513.29699707 C305.48433436 555.80321652 293.83836746 596.89107285 276 636 C275.33750244 637.46518066 275.33750244 637.46518066 274.66162109 638.95996094 C267.91659249 653.77981567 260.22159178 667.95322218 252 682 C251.4932373 682.87285645 250.98647461 683.74571289 250.46435547 684.64501953 C240.67501084 701.47274676 229.92586005 717.60707731 218 733 C217.58572754 733.53898926 217.17145508 734.07797852 216.74462891 734.63330078 C203.18721597 752.25643178 188.43601509 768.62874235 172.75 784.375 C171.91017578 785.21949707 171.07035156 786.06399414 170.20507812 786.93408203 C165.29734413 791.82920722 160.27253983 796.50181956 155 801 C154.03578125 801.845625 153.0715625 802.69125 152.078125 803.5625 C128.21173056 824.13243112 101.71247403 842.03838627 74 857 C73.05012207 857.51868652 72.10024414 858.03737305 71.12158203 858.57177734 C22.64111531 884.93584906 -31.24012731 903.37003976 -85.8125 911.8125 C-87.06095703 912.00755127 -88.30941406 912.20260254 -89.59570312 912.40356445 C-110.81285922 915.49477865 -132.08054775 916.38222354 -153.5 916.3125 C-154.67355042 916.31067719 -155.84710083 916.30885437 -157.05621338 916.30697632 C-176.20728574 916.25714347 -195.00253376 915.54711879 -214 913 C-214.98661621 912.8691803 -214.98661621 912.8691803 -215.99316406 912.73571777 C-294.12683613 902.31383902 -370.95650756 874.01028499 -434 826 C-433.39126164 822.76012927 -432.31175583 820.78359537 -430.296875 818.19140625 C-429.73516602 817.455271 -429.17345703 816.71913574 -428.59472656 815.96069336 C-427.9859668 815.16928955 -427.37720703 814.37788574 -426.75 813.5625 C-411.90531129 793.82745947 -399.72209019 772.16873265 -388.95898438 749.97119141 C-388.01000937 748.02057424 -387.04449282 746.07876524 -386.078125 744.13671875 C-356.49623023 683.88776423 -344.67441963 616.45850004 -333 551 C-328.75870972 552.41376343 -327.65024759 555.50897726 -325.5 559.1875 C-320.57878277 567.31686401 -315.07517093 574.70449796 -309 582 C-308.49114258 582.61182129 -307.98228516 583.22364258 -307.45800781 583.85400391 C-270.93828737 627.53955915 -219.57974609 653.28889887 -163 659 C-161.41445312 659.16628906 -161.41445312 659.16628906 -159.796875 659.3359375 C-101.07148721 664.68775855 -46.21644197 643.96533087 -1.4375 606.6875 C10.74198598 596.30852563 21.52062434 584.88061344 31 572 C31.63164063 571.15179687 32.26328125 570.30359375 32.9140625 569.4296875 C52.75407008 541.979814 64.4405582 510.28268925 70 477 C70.12987305 476.24589844 70.25974609 475.49179688 70.39355469 474.71484375 C77.53828243 431.24607999 67.98850208 388.39568713 49.80126953 348.95288086 C45.01828765 337.2956377 48.36894419 322.03362089 50.08203125 309.90234375 C50.30014051 308.2956854 50.51712853 306.6888745 50.733078 305.08192444 C51.30006981 300.87922964 51.87855216 296.67821187 52.46075439 292.4776001 C59.29146058 243.93293 59.29146058 243.93293 61.375 195 C61.37067963 193.9339151 61.36635925 192.8678302 61.36190796 191.7694397 C61.27830828 174.02635583 60.51746582 156.58541981 58 139 C57.82839355 137.78699219 57.65678711 136.57398438 57.47998047 135.32421875 C50.2946113 86.26593414 33.17771251 42.20239051 1.43359375 3.9609375 C0 2 0 2 0 0 Z " fill="#02AFEA" transform="translate(1364,616)"/>
<path d="M0 0 C0.86960358 -0.00767395 1.73920715 -0.0153479 2.63516235 -0.02325439 C19.78656522 -0.14398347 39.12686274 -0.02204701 52.3984375 12.32421875 C62.12764936 23.4766996 62.34968426 38.87235192 62.30102539 52.86157227 C62.30117142 53.97479355 62.30131744 55.08801483 62.3014679 56.23497009 C62.30077539 59.88713582 62.29301416 63.53924952 62.28515625 67.19140625 C62.28328972 69.73445101 62.28186692 72.27749613 62.28086853 74.82054138 C62.27745024 80.81263362 62.2695817 86.80470378 62.25951904 92.7967872 C62.24830518 99.62394929 62.24283422 106.45111231 62.23782361 113.27828133 C62.22739751 127.31053106 62.20983108 141.34276452 62.1875 155.375 C62.94191376 155.06272461 63.69632751 154.75044922 64.47360229 154.42871094 C67.33337053 153.24739005 70.19471367 152.0699849 73.05709839 150.89501953 C74.88065485 150.14516251 76.70243874 149.39099935 78.52416992 148.63671875 C94.85040352 141.94335342 111.61353524 136.50442136 129.1875 134.375 C129.95280029 134.2821875 130.71810059 134.189375 131.5065918 134.09375 C140.15363644 133.17845939 148.81444595 133.13164352 157.5 133.125 C158.29574432 133.12432526 159.09148865 133.12365051 159.91134644 133.12295532 C202.98388802 133.18078387 246.49540753 146.44950016 279.1875 175.375 C280.66669922 176.67244141 280.66669922 176.67244141 282.17578125 177.99609375 C311.85695148 204.3856529 329.73063496 239.97698164 337.9375 278.5 C338.13625732 279.42828613 338.33501465 280.35657227 338.53979492 281.31298828 C341.73520832 297.13254456 342.53597424 312.65013232 342.50317383 328.75634766 C342.50002482 331.97463259 342.52352881 335.19198475 342.54882812 338.41015625 C342.67300784 379.4298108 333.57754248 424.10528916 308.1875 457.375 C307.79272461 457.91060547 307.39794922 458.44621094 306.99121094 458.99804688 C276.02917717 500.98927193 227.98412617 521.44907896 177.5 529.125 C166.8355109 530.71405753 156.25138012 531.53151305 145.46875 531.578125 C144.38043381 531.58513931 143.29211761 531.59215363 142.17082214 531.59938049 C138.67633893 531.61679665 135.18202502 531.62323289 131.6875 531.625 C130.49565094 531.62567474 129.30380188 531.62634949 128.07583618 531.62704468 C110.92855138 531.61159186 94.12133818 531.33394066 77.1875 528.375 C76.20861816 528.21402832 75.22973633 528.05305664 74.22119141 527.88720703 C38.95293005 521.93965154 3.11173214 508.11517032 -24.8125 485.375 C-25.91271484 484.52035156 -25.91271484 484.52035156 -27.03515625 483.6484375 C-39.05594921 473.87430527 -46.59426517 459.54230558 -48.35185909 444.23146248 C-49.09697665 436.41911297 -48.94695285 428.57343767 -48.93275452 420.73410034 C-48.933191 418.93943108 -48.93406734 417.14476187 -48.93534368 415.35009301 C-48.93757343 410.43579685 -48.93358819 405.5215226 -48.92856562 400.60722923 C-48.92423945 395.30128863 -48.92570908 389.99534922 -48.9264679 384.68940735 C-48.92699176 375.50222354 -48.92385934 366.31504685 -48.91823006 357.12786484 C-48.91009641 343.8448085 -48.90749792 330.56175559 -48.90624207 317.27869703 C-48.90405448 295.7268117 -48.89740234 274.17493015 -48.88793945 252.62304688 C-48.87875775 231.68977884 -48.87168062 210.75651183 -48.86743164 189.82324219 C-48.86716892 188.53250034 -48.86690619 187.24175849 -48.86663551 185.91190325 C-48.86533045 179.43650674 -48.86406675 172.96111023 -48.86282361 166.48571372 C-48.85246013 112.78213986 -48.83484978 59.07857012 -48.8125 5.375 C-33.05348881 0.05995193 -16.47330232 0.06118184 0 0 Z M61.1875 231.375 C61.06755874 233.93854668 61.01296478 236.47599309 60.99995422 239.04092407 C60.99204414 239.85355001 60.98413406 240.66617594 60.97598428 241.50342691 C60.95076496 244.24787176 60.93295706 246.99231327 60.9152832 249.73681641 C60.89920703 251.69602703 60.88282731 253.65523519 60.86616516 255.61444092 C60.72138738 273.51748171 60.64640622 291.42122587 60.58724689 309.32473183 C60.54265656 322.56517683 60.46550055 335.80458732 60.34566242 349.04456961 C60.26429805 358.34651406 60.22111574 367.64817468 60.20594472 376.95045984 C60.19576897 382.50962729 60.16839919 388.06749297 60.09963417 393.62627029 C60.03562443 398.85847183 60.01882543 404.0887139 60.03812981 409.32125092 C60.0369759 411.24057068 60.01871049 413.15996878 59.981987 415.07893753 C59.4425161 425.18670435 59.4425161 425.18670435 63.37651634 434.04182053 C65.92537289 435.86409674 68.30624994 437.16392363 71.1875 438.375 C72.26257812 438.97570313 73.33765625 439.57640625 74.4453125 440.1953125 C91.24552673 447.84009663 107.74530991 451.559326 126.1875 452.375 C127.12464844 452.41753906 128.06179687 452.46007813 129.02734375 452.50390625 C155.84741306 453.10887022 179.79424771 444.09159691 199.375 425.6875 C223.361225 400.8542494 228.77260221 364.98691007 229.4375 331.875 C229.38862573 329.70728226 229.29933843 327.54038243 229.1875 325.375 C229.14641113 324.55161133 229.10532227 323.72822266 229.06298828 322.87988281 C227.25037478 289.55790802 219.49872366 257.375679 194.4609375 233.80859375 C184.18811027 225.06040802 173.09976632 219.21910982 160.1875 215.375 C158.58455078 214.89353516 158.58455078 214.89353516 156.94921875 214.40234375 C131.61518674 208.11997134 81.46487481 211.09762519 61.1875 231.375 Z " fill="#323940" transform="translate(2938.8125,755.625)"/>
<path d="M0 0 C2.61100928 -0.00964184 5.22120785 -0.04071489 7.83203125 -0.07226562 C23.68019927 -0.17242889 41.17284714 0.0412941 53.95703125 10.55273438 C63.61728353 22.42104432 65.30818779 34.87123868 65.25805664 49.77514648 C65.25820267 50.91733643 65.25834869 52.05952637 65.25849915 53.23632812 C65.25780468 56.99676438 65.25003411 60.75715057 65.2421875 64.51757812 C65.24032167 67.13074212 65.23889854 69.74390646 65.23789978 72.35707092 C65.23479884 78.52276627 65.2266022 84.68844377 65.21655029 90.85413128 C65.20535064 97.87713211 65.19986901 104.90013382 65.19485486 111.92314136 C65.1844185 126.36218155 65.16684312 140.80120771 65.14453125 155.24023438 C65.89927231 154.92795898 66.65401337 154.61568359 67.43162537 154.29394531 C70.29224575 153.11271824 73.15439816 151.93529897 76.01756287 150.76025391 C77.84177292 150.01031756 79.6642591 149.25619225 81.48669434 148.50195312 C98.23189903 141.63799219 115.14710349 136.40890536 133.14453125 134.24023438 C133.84594238 134.14742187 134.54735352 134.05460938 135.27001953 133.95898438 C183.83723682 128.20530515 235.31298865 138.62757492 274.53979492 168.67749023 C281.07687165 173.84045187 287.15729794 179.45653308 293.14453125 185.24023438 C293.80710938 185.85125 294.4696875 186.46226562 295.15234375 187.09179688 C332.52649102 222.37994523 344.71493203 278.02829003 346.3359375 327.20898438 C347.41091872 381.06844894 333.93785083 435.32946225 296.14453125 475.24023438 C294.99017578 476.47386719 294.99017578 476.47386719 293.8125 477.73242188 C283.29349294 488.64228057 271.33129475 496.91388021 258.14453125 504.24023438 C257.54366699 504.57764648 256.94280273 504.91505859 256.32373047 505.26269531 C224.08949894 523.10773302 185.10715259 531.28479044 148.42578125 531.44335938 C147.33746506 531.45037369 146.24914886 531.457388 145.12785339 531.46461487 C141.63337018 531.48203102 138.13905627 531.48846727 134.64453125 531.49023438 C133.45268219 531.49090912 132.26083313 531.49158386 131.03286743 531.49227905 C113.88873558 531.47682908 97.07412745 531.21095454 80.14453125 528.24023438 C78.65228027 527.99080078 78.65228027 527.99080078 77.12988281 527.73632812 C55.18156614 523.96777773 34.14417347 517.00976731 14.14453125 507.24023438 C13.37302734 506.86672852 12.60152344 506.49322266 11.80664062 506.10839844 C-11.58883694 494.6585335 -34.12729652 480.39623691 -43.09375 454.78320312 C-44.61188661 449.71496243 -44.99837334 444.97936089 -44.97851658 439.70650005 C-44.97967042 438.95278129 -44.98082427 438.19906253 -44.98201308 437.4225038 C-44.98466684 434.88863662 -44.98016776 432.35483257 -44.97572327 429.82096863 C-44.97615922 427.98936664 -44.97703458 426.15776471 -44.97831243 424.32616311 C-44.98055262 419.28655472 -44.97654258 414.24696751 -44.97153437 409.20736182 C-44.96722326 403.77522445 -44.96867677 398.34308831 -44.96943665 392.91094971 C-44.96996146 383.49722701 -44.96681908 374.08351123 -44.96119881 364.66979027 C-44.95307807 351.05906305 -44.950468 337.44833918 -44.94921082 323.83760981 C-44.9470212 301.75607718 -44.94037214 279.6745482 -44.9309082 257.59301758 C-44.92172448 236.14054381 -44.91464052 214.68807104 -44.91040039 193.2355957 C-44.91026886 192.57438657 -44.91013734 191.91317743 -44.91000183 191.23193165 C-44.90855248 183.93295108 -44.90716064 176.63397049 -44.90579236 169.33498991 C-44.89542256 114.30340218 -44.8778067 59.27181845 -44.85546875 4.24023438 C-41.9578282 3.75334846 -39.06002142 3.26749162 -36.16210938 2.78222656 C-34.93599945 2.57604202 -34.93599945 2.57604202 -33.68511963 2.36569214 C-22.40246281 0.47859038 -11.426866 0.02539304 0 0 Z M64.14453125 231.24023438 C64.01572753 233.79907039 63.95216418 236.33210361 63.93006897 238.8927002 C63.91933662 239.703915 63.90860428 240.5151298 63.89754671 241.35092688 C63.86290227 244.09068662 63.83575992 246.83046669 63.80883789 249.5703125 C63.78621819 251.52627846 63.76334967 253.48224156 63.74024963 255.4382019 C63.53785896 273.32028163 63.42603572 291.20337786 63.33702946 309.08634186 C63.27586686 321.11396502 63.18826287 333.14017642 63.03344727 345.16699219 C62.89845544 355.65387301 62.81264996 366.13977789 62.78662199 376.62751722 C62.77124353 382.17948602 62.73172653 387.72886774 62.63374519 393.28004456 C62.5424121 398.5078262 62.51744646 403.73179199 62.54273033 408.96026993 C62.54048053 410.87562041 62.51435143 412.79111937 62.46219635 414.70576096 C61.89339629 424.32435347 61.89339629 424.32435347 65.47563243 432.87649345 C69.25012311 436.20372266 73.54614532 438.29030729 78.14453125 440.24023438 C79.45869422 440.83504757 80.77252737 441.43059005 82.08601475 442.02689362 C109.46449572 453.97626576 142.97742463 456.50501756 171.22900391 445.99511719 C189.74528599 438.69810671 205.48337073 425.76930056 215.14453125 408.24023438 C215.47050293 407.66176758 215.79647461 407.08330078 216.13232422 406.48730469 C235.77376704 371.26371207 237.22877888 322.92353469 227.04174805 284.63769531 C219.64239762 258.67095812 206.18025304 236.93094715 182.40234375 222.99023438 C152.77222723 207.07381687 90.62824701 204.75651862 64.14453125 231.24023438 Z " fill="#323940" transform="translate(4220.85546875,755.759765625)"/>
<path d="M0 0 C0.89380371 0.00215515 1.78760742 0.0043103 2.70849609 0.00653076 C60.57392929 0.2294668 113.68456669 18.79285675 154.77734375 60.14453125 C181.18627764 87.84170582 196.20344406 124.82338746 201.9375 162.3125 C202.14375 163.60671875 202.35 164.9009375 202.5625 166.234375 C209.11176 212.9348772 202.73233243 264.78772644 179.9375 306.3125 C179.2940966 307.52334494 178.65086646 308.73428195 178.0078125 309.9453125 C170.79455486 323.27846892 161.32874913 334.38349978 150.9375 345.3125 C150.30714844 346.00730469 149.67679688 346.70210937 149.02734375 347.41796875 C122.06180582 376.16145424 79.97833984 391.03394049 41.9375 396.3125 C40.74866211 396.48837646 39.55982422 396.66425293 38.33496094 396.84545898 C27.03230415 398.41781893 15.8108379 398.65246785 4.41064453 398.62817383 C1.3371997 398.6250253 -1.73526768 398.64853225 -4.80859375 398.67382812 C-54.10849267 398.83185798 -103.62183004 384.25801354 -141.0625 351.3125 C-142.52042969 350.05373047 -142.52042969 350.05373047 -144.0078125 348.76953125 C-181.94108581 315.47295256 -199.42394075 265.87958856 -202.88598633 216.60522461 C-204.98256594 177.49517044 -199.89712089 138.90066607 -183.0625 103.3125 C-182.77761719 102.70035645 -182.49273438 102.08821289 -182.19921875 101.45751953 C-174.34966712 84.6786549 -163.55693239 69.05258524 -150.0625 56.3125 C-149.26070312 55.51070312 -148.45890625 54.70890625 -147.6328125 53.8828125 C-108.66457313 14.91457313 -53.96699372 -0.23587855 0 0 Z M-61.4296875 105.2734375 C-83.90000318 130.37378281 -89.28407866 166.0885946 -89.3125 198.5 C-89.31317474 199.19781586 -89.31384949 199.89563171 -89.31454468 200.61459351 C-89.26212003 235.03504643 -82.82122576 270.03993861 -58.453125 295.94140625 C-41.42524331 312.83017126 -22.16540354 319.60448107 1.5 319.8125 C21.75067067 319.63430078 40.66896507 314.20134804 55.9375 300.3125 C56.62070313 299.69761719 57.30390625 299.08273437 58.0078125 298.44921875 C79.5634993 278.00000257 88.98762631 245.3583022 90.00601196 216.36175537 C90.15153701 210.74163686 90.18359138 205.12179187 90.1875 199.5 C90.18817474 198.62911743 90.18884949 197.75823486 90.18954468 196.86096191 C90.1734686 183.79997596 89.76940796 171.11272398 86.9375 158.3125 C86.76589355 157.51054199 86.59428711 156.70858398 86.41748047 155.88232422 C80.94694122 131.05223589 69.35393845 107.17066441 47.9375 92.3125 C12.86260043 70.01283229 -32.74089843 75.60383513 -61.4296875 105.2734375 Z " fill="#323940" transform="translate(2583.0625,888.6875)"/>
<path d="M0 0 C1.06091858 -0.00067474 2.12183716 -0.00134949 3.21490479 -0.00204468 C50.96853137 0.04604422 110.58564446 5.96814627 146.734375 41.1796875 C148.93979332 43.3751106 148.93979332 43.3751106 151.80859375 45.61328125 C172.88106967 63.01318258 182.39722899 92.77731936 184.93695068 118.93379211 C185.94379023 129.49242828 186.15947897 139.96007529 186.13378906 150.55932617 C186.13650914 152.48706188 186.14007569 154.41479654 186.14440918 156.3425293 C186.15340805 161.50504232 186.15004329 166.66747407 186.14365101 171.82998824 C186.1385334 177.26380212 186.14329753 182.69760975 186.14642334 188.13142395 C186.15004297 197.23842603 186.14531327 206.34539547 186.13574219 215.45239258 C186.12482544 225.96077896 186.12841459 236.46908792 186.139395 246.97747248 C186.14848227 256.03955501 186.14974718 265.10161431 186.14451766 274.16369992 C186.1414105 279.55947058 186.14095473 284.95520485 186.14759064 290.35097313 C186.15338576 295.41468552 186.14932769 300.47829815 186.13780212 305.54199982 C186.13516866 307.39386899 186.13589805 309.24574663 186.14032745 311.09761238 C186.17513139 327.13132344 185.6057854 340.54977806 173.9375 352.75 C148.08663049 377.82565175 111.83160559 388.38271551 77.1875 394.0625 C76.00325439 394.25730957 74.81900879 394.45211914 73.59887695 394.65283203 C53.45012748 397.74551317 33.35426449 398.60049409 12.98828125 398.56567383 C9.14293994 398.56251474 5.29837207 398.58608205 1.453125 398.61132812 C-49.43780655 398.74197242 -105.23620252 389.77113888 -143.875 353.9375 C-154.62245078 342.53868857 -162.43596071 328.63247553 -166.9375 313.6875 C-167.13255127 313.03998779 -167.32760254 312.39247559 -167.52856445 311.7253418 C-170.52178858 301.02129769 -171.4932695 290.20454068 -171.4375 279.125 C-171.43258545 277.95356445 -171.4276709 276.78212891 -171.42260742 275.57519531 C-171.06230372 248.57643796 -163.60238914 223.60867575 -144.71484375 203.7109375 C-118.04209254 178.46940709 -78.10914517 171.24564794 -43 167.5 C-40.85383615 167.2623347 -38.70776211 167.0238573 -36.56176758 166.78466797 C-30.9760672 166.16648124 -25.38892204 165.56270633 -19.80098248 164.96512032 C-14.04472969 164.34940469 -8.28915126 163.72757277 -2.53369141 163.10449219 C8.07082003 161.95714898 18.67627683 160.81877402 29.28231049 159.68559265 C32.18316014 159.37546397 35.0839225 159.06452773 37.98468018 158.75354004 C42.59687483 158.25959088 47.20949945 157.76985206 51.82247353 157.28323746 C53.54063365 157.10145942 55.25866381 156.91844823 56.97655296 156.73412704 C59.35160983 156.4795865 61.72711218 156.22969106 64.1027832 155.98095703 C64.79084612 155.90621281 65.47890903 155.83146858 66.18782234 155.75445938 C70.4338262 155.31622363 74.60797264 155.18532745 78.875 155.25 C78.83017539 151.07242339 78.75967377 146.89621906 78.66748047 142.71948242 C78.63962082 141.30488497 78.61823631 139.89014197 78.60400391 138.4753418 C78.4265833 121.8155469 74.63400256 107.55401933 62.4375 95.5625 C48.0253604 83.34065517 29.16433496 78.81159604 10.875 76.25 C9.86228027 76.10316772 9.86228027 76.10316772 8.82910156 75.95336914 C0.49265997 74.93092373 -7.9126688 75.06393801 -16.29785156 75.06469727 C-18.95915279 75.06253322 -21.620023 75.04439234 -24.28125 75.02539062 C-40.95943612 74.96930175 -57.33520237 76.44103978 -73.75 79.4375 C-74.91877686 79.64890625 -76.08755371 79.8603125 -77.29174805 80.078125 C-93.93109855 83.20813383 -110.35794535 87.60105042 -126.26953125 93.40234375 C-129.16266453 94.26118085 -131.14590423 94.77007943 -134.125 94.25 C-143.69958477 83.66163567 -146.60407013 67.67324273 -146.37109375 53.96875 C-145.696226 43.7707484 -142.52151969 35.06189673 -134.78125 28.16015625 C-107.84273434 7.5204994 -70.81581434 4.09439119 -38.125 1.25 C-37.03010254 1.15428711 -35.93520508 1.05857422 -34.80712891 0.95996094 C-23.21429697 0.06610986 -11.62206284 0.0066722 0 0 Z M71.4597168 216.82910156 C70.68215027 216.89095139 69.90458374 216.95280121 69.10345459 217.01652527 C61.85601324 217.59475133 54.60962037 218.18575147 47.36354351 218.78081131 C42.50627571 219.17942119 37.64874965 219.57377184 32.7902832 219.95751953 C28.08086762 220.32963238 23.37254578 220.71360616 18.66471291 221.10521698 C16.88690664 221.25115258 15.10877052 221.3931368 13.33029747 221.53070831 C-10.61830819 223.39062999 -37.64789759 226.47316498 -55.34375 244.51171875 C-64.30861185 255.39490909 -67.03596686 267.80172355 -65.7265625 281.6875 C-63.17424861 296.80250171 -54.63994125 307.47999509 -42.6953125 316.546875 C-18.40431471 332.64242976 18.43573888 328.918021 45.51318359 323.74609375 C57.2466026 321.30021602 67.41236884 317.02807243 77.875 311.25 C78.535 310.92 79.195 310.59 79.875 310.25 C79.875 279.23 79.875 248.21 79.875 216.25 C77.0738462 216.25 74.2526433 216.60610694 71.4597168 216.82910156 Z " fill="#323940" transform="translate(3534.125,888.75)"/>
<path d="M0 0 C1.60029053 -0.00101212 1.60029053 -0.00101212 3.23291016 -0.00204468 C55.32239049 0.05020497 107.84744039 9.49069352 146.9375 46.25 C147.93330078 47.13171875 147.93330078 47.13171875 148.94921875 48.03125 C170.34606146 67.82224447 180.51116019 98.7863057 182.10416961 127.22546482 C182.36489686 135.06730844 182.31426795 142.90991146 182.27807617 150.75488281 C182.27722803 153.35878489 182.27770869 155.96268769 182.27940369 158.56658936 C182.28096254 164.12987916 182.27170064 169.69306189 182.25469017 175.25632477 C182.23011343 183.29945032 182.22247602 191.34252508 182.2187262 199.3856841 C182.21219067 212.44107121 182.19230903 225.49640149 182.16381836 238.55175781 C182.13620216 251.21972371 182.1150058 263.88767407 182.10229492 276.55566406 C182.10150675 277.33897643 182.10071858 278.12228879 182.09990653 278.92933789 C182.09599088 282.85971992 182.09219989 286.79010205 182.08847082 290.72048426 C182.05746536 323.23036418 182.00470957 355.74017443 181.9375 388.25 C178.59289645 388.73879869 175.24768065 389.22327919 171.90234375 389.70703125 C170.9630603 389.84435669 170.02377686 389.98168213 169.05603027 390.12316895 C145.20690987 393.56139546 107.54912982 398.03298269 86.5 383.5 C77.72622352 376.09308554 73.47580444 366.52553901 71.9375 355.25 C71.79469319 352.30712444 71.79134142 349.36842837 71.79273987 346.42248535 C71.78921302 345.54518941 71.78568618 344.66789348 71.78205246 343.76401281 C71.77139559 340.83030002 71.76768966 337.89661973 71.76391602 334.96289062 C71.75760818 332.85666772 71.75084213 330.75044615 71.74365234 328.64422607 C71.72899501 324.10989154 71.7172649 319.5755621 71.70770454 315.04121399 C71.69222784 307.86220909 71.66827683 300.68324795 71.64280701 293.50427246 C71.57167486 273.09011607 71.51191725 252.67593446 71.46069336 232.26171875 C71.43232476 220.98589457 71.39690651 209.71011381 71.35403961 198.43433523 C71.32736961 191.30802232 71.30940131 184.18175849 71.29800236 177.05540562 C71.28882821 172.60572537 71.27144355 168.15610433 71.25182343 163.70645905 C71.2443967 161.65472095 71.24026983 159.60296761 71.23982811 157.55121613 C71.23109562 135.0954901 69.73406822 114.68229123 53.5625 97.5 C47.40554653 91.72193597 40.90430633 88.00939828 33.0625 85 C32.42707275 84.7537085 31.79164551 84.50741699 31.13696289 84.25366211 C21.26225944 80.65913596 11.37992868 79.8857268 0.9375 79.9375 C-0.24368408 79.94241455 -1.42486816 79.9473291 -2.6418457 79.95239258 C-23.58226936 80.22958914 -43.51532635 84.57166455 -61.81686944 94.99835724 C-63.45577191 95.91182914 -65.12638923 96.76905322 -66.81268007 97.59176546 C-72.56337397 100.58279596 -72.56337397 100.58279596 -76.0809902 105.76480091 C-76.46893657 108.85980676 -76.50391132 111.79295505 -76.42326355 114.91148376 C-76.44348689 116.66617386 -76.44348689 116.66617386 -76.46411878 118.45631224 C-76.49039413 121.69161811 -76.46758152 124.92223449 -76.42376482 128.15721142 C-76.3885141 131.64941648 -76.41691928 135.14118137 -76.4375 138.63342285 C-76.46446364 144.67968204 -76.45131141 150.7247798 -76.41072655 156.77094841 C-76.35210788 165.51240029 -76.35427601 174.25301075 -76.37116591 182.9946043 C-76.39692382 197.17767988 -76.37368568 211.36023365 -76.31958008 225.54321289 C-76.2671342 239.31865862 -76.23779801 253.09383469 -76.23950195 266.86938477 C-76.23959899 267.71883944 -76.23969603 268.56829412 -76.23979601 269.44348984 C-76.24042526 273.70505585 -76.24150843 277.9666216 -76.24281728 282.22818744 C-76.25308442 317.5690392 -76.18381285 352.90936425 -76.0625 388.25 C-79.40710355 388.73879869 -82.75231935 389.22327919 -86.09765625 389.70703125 C-87.0369397 389.84435669 -87.97622314 389.98168213 -88.94396973 390.12316895 C-112.79309013 393.56139546 -150.45087018 398.03298269 -171.5 383.5 C-180.24403589 376.11819286 -184.58711032 366.50965521 -186.0625 355.25 C-186.21268154 351.55868379 -186.21032356 347.86988519 -186.20967102 344.17588806 C-186.21334771 343.05695697 -186.2170244 341.93802588 -186.2208125 340.78518778 C-186.23183026 337.03378915 -186.23568996 333.28241824 -186.23950195 329.53100586 C-186.24576804 326.84188677 -186.25240246 324.1527706 -186.25941467 321.46365356 C-186.27914088 313.39335276 -186.28924007 305.32305077 -186.29814246 297.25273189 C-186.30253137 293.44744892 -186.30789659 289.64216733 -186.31313133 285.83688545 C-186.33013921 273.1793023 -186.3446322 260.52171998 -186.35188007 247.86412716 C-186.3537898 244.58235104 -186.35571016 241.30057492 -186.35766602 238.01879883 C-186.35814976 237.20318281 -186.3586335 236.38756679 -186.3591319 235.54723514 C-186.36742792 222.34200869 -186.39275956 209.13687296 -186.42524669 195.9316861 C-186.45836475 182.35885262 -186.47633309 168.78606517 -186.47952431 155.21319109 C-186.48168494 147.59872944 -186.4903679 139.9844001 -186.51598549 132.36997795 C-186.53775742 125.88385665 -186.54571114 119.39789983 -186.53601871 112.91174614 C-186.53149274 109.60673738 -186.53546988 106.30213619 -186.55278015 102.99715996 C-186.65450938 82.41658395 -185.46787188 67.68374322 -170.625 52.3125 C-164.13892507 45.86515399 -156.86524929 40.96090988 -149.0625 36.25 C-148.42828125 35.86215332 -147.7940625 35.47430664 -147.140625 35.07470703 C-103.34210883 8.53520981 -50.45025256 0.02868259 0 0 Z " fill="#323940" transform="translate(5503.0625,888.75)"/>
<path d="M0 0 C7.80573611 7.51467476 12.83814237 16.61047562 13.5078125 27.53125 C13.69244047 42.05531704 11.34277384 56.06532073 1.3046875 67.21875 C-3.7397316 65.72127274 -8.77511225 64.20231132 -13.7890625 62.60546875 C-44.39880391 52.92865822 -75.94074717 45.99466459 -108.1328125 45.96875 C-108.88687378 45.96807526 -109.64093506 45.96740051 -110.41784668 45.96670532 C-131.54701661 45.99670401 -155.93606858 47.43425976 -171.82421875 63.3515625 C-178.86860171 71.79305691 -180.3001773 79.68271651 -180.0390625 90.5625 C-179.2056002 99.42750805 -175.40128253 106.38747171 -168.6953125 112.21875 C-154.40441519 122.54951914 -136.7397417 125.52874696 -119.88116455 129.26696777 C-100.59294905 133.55750185 -81.44716208 137.93598238 -62.6953125 144.21875 C-61.75848633 144.52699707 -60.82166016 144.83524414 -59.85644531 145.15283203 C-41.00425406 151.42285439 -21.59477972 159.08175212 -5.6953125 171.21875 C-4.75816406 171.92515625 -3.82101562 172.6315625 -2.85546875 173.359375 C17.52457085 189.3502977 29.02637818 210.48562245 32.86328125 235.921875 C36.09791555 263.33011797 31.43782949 292.31367598 15.2578125 315.1015625 C13.33644895 317.53677909 11.34464419 319.88260328 9.3046875 322.21875 C8.78777344 322.87875 8.27085938 323.53875 7.73828125 324.21875 C-1.0563213 335.15138876 -13.38741592 342.8333479 -25.6953125 349.21875 C-26.819375 349.81300781 -27.9434375 350.40726563 -29.1015625 351.01953125 C-44.44986816 358.67670586 -60.9425669 362.9654934 -77.7578125 366.03125 C-78.81895264 366.22605957 -79.88009277 366.42086914 -80.97338867 366.62158203 C-100.11057257 369.87781526 -119.31766026 370.59589362 -138.6953125 370.53125 C-139.80683685 370.52975952 -140.91836121 370.52826904 -142.06356812 370.5267334 C-159.77754137 370.48417197 -177.14950873 369.83165816 -194.6953125 367.21875 C-196.18901367 367.0019458 -196.18901367 367.0019458 -197.71289062 366.78076172 C-225.32495626 362.63344048 -252.29705724 355.23344833 -272.6953125 335.21875 C-273.35660156 334.58195312 -274.01789063 333.94515625 -274.69921875 333.2890625 C-284.31276611 323.28100672 -286.11897003 310.87693821 -285.90234375 297.58203125 C-285.43751501 284.40998252 -279.84895278 275.23607949 -271.6953125 265.21875 C-268.21313479 265.81270519 -265.26284892 266.71825506 -262.0546875 268.1875 C-261.16177002 268.5894458 -260.26885254 268.9913916 -259.34887695 269.40551758 C-258.39070068 269.83888428 -257.43252441 270.27225098 -256.4453125 270.71875 C-225.87002691 284.23796853 -193.79767099 294.24653068 -160.09375 294.421875 C-159.21361237 294.42757507 -158.33347473 294.43327515 -157.42666626 294.43914795 C-155.57628554 294.44852298 -153.72588868 294.45510174 -151.87548828 294.45898438 C-149.09767295 294.46865475 -146.32061022 294.49973625 -143.54296875 294.53125 C-122.67993544 294.65546934 -102.42735814 291.78464272 -86.44140625 277.15625 C-79.36708764 269.8604518 -76.54902755 262.33278966 -76.1953125 252.21875 C-76.55572414 241.23820868 -80.40402255 232.16452288 -88.40234375 224.60546875 C-96.48350767 218.02144678 -106.17885989 214.41814207 -116.1484375 211.8359375 C-116.9649025 211.62298538 -117.78136749 211.41003326 -118.62257385 211.19062805 C-128.16210269 208.76273305 -137.81329426 206.9077356 -147.47207642 205.02557373 C-173.62641204 199.90081789 -199.2739674 194.20375566 -223.6953125 183.21875 C-224.40574707 182.89938477 -225.11618164 182.58001953 -225.84814453 182.25097656 C-243.54701732 174.1480764 -262.02168927 162.99596813 -272.6953125 146.21875 C-273.26765625 145.33832031 -273.84 144.45789062 -274.4296875 143.55078125 C-289.54890763 119.09511964 -291.20876081 88.96752254 -285.94921875 61.29296875 C-282.37132283 46.23400238 -275.59300373 33.05027077 -265.6953125 21.21875 C-264.77685547 20.05666016 -264.77685547 20.05666016 -263.83984375 18.87109375 C-254.0973781 7.092889 -241.1339966 -0.87260711 -227.6953125 -7.78125 C-227.0967041 -8.09545898 -226.4980957 -8.40966797 -225.88134766 -8.73339844 C-167.4573035 -39.10417756 -52.72479332 -45.68439065 0 0 Z " fill="#323940" transform="translate(5182.6953125,917.78125)"/>
<path d="M0 0 C7.91376652 7.60526375 12.71788913 17.01095113 13.5078125 28.0546875 C13.7347026 43.04834176 10.38272363 55.23372731 1.3046875 67.21484375 C-3.7397316 65.71736649 -8.77511225 64.19840507 -13.7890625 62.6015625 C-36.37768779 55.45984714 -59.23008888 50.45825519 -82.6953125 47.21484375 C-83.39978516 47.11026855 -84.10425781 47.00569336 -84.83007812 46.89794922 C-92.53074041 45.87594774 -100.3156376 45.97105035 -108.0703125 45.96484375 C-109.20515076 45.96383163 -109.20515076 45.96383163 -110.36291504 45.96279907 C-131.12586568 45.99219979 -152.83899205 47.58226044 -169.6953125 61.21484375 C-176.88470398 68.53615067 -180.66202135 76.92787963 -180.6953125 87.21484375 C-180.05775763 96.66728764 -176.60162563 104.79326435 -169.6953125 111.40234375 C-152.279463 124.75574888 -128.63562666 127.4936173 -107.81164551 132.23815918 C-70.96476318 140.64441873 -28.74316127 150.43553695 0.3046875 176.21484375 C1.04589844 176.81425781 1.78710938 177.41367188 2.55078125 178.03125 C20.39038566 192.84090427 30.16765596 214.55206267 32.98828125 237.26953125 C35.24584077 265.41934743 31.13401772 294.98871258 13.1796875 317.71484375 C11.89615758 319.22181214 10.60528427 320.72258009 9.3046875 322.21484375 C8.82644531 322.82457031 8.34820312 323.43429687 7.85546875 324.0625 C-15.82802617 353.85348644 -59.71595321 364.11782704 -95.38671875 368.63671875 C-97.1554958 368.83623088 -98.92506916 369.02879035 -100.6953125 369.21484375 C-101.58081787 369.31055664 -102.46632324 369.40626953 -103.37866211 369.50488281 C-114.93127791 370.57490682 -126.54095388 370.45771288 -138.1328125 370.46484375 C-139.26714722 370.46585083 -140.40148193 370.46685791 -141.57019043 370.46789551 C-159.47106778 370.4571594 -176.95978749 369.81224715 -194.6953125 367.21484375 C-196.24557129 366.99803955 -196.24557129 366.99803955 -197.82714844 366.77685547 C-224.95483623 362.89225317 -257.31032447 355.09888466 -275.59765625 332.90625 C-285.3496887 319.69049356 -287.3444913 305.73742179 -285.234375 289.71484375 C-283.11136326 280.12382598 -278.18008491 272.46253056 -271.6953125 265.21484375 C-266.71078053 265.85896816 -262.6168415 268.02241874 -258.1328125 270.15234375 C-237.49597076 279.64309411 -216.00820166 286.91156468 -193.6953125 291.21484375 C-192.79119629 291.39128418 -191.88708008 291.56772461 -190.95556641 291.74951172 C-176.79380235 294.35465665 -162.54905462 294.51757369 -148.1953125 294.58984375 C-147.29934357 294.59788025 -146.40337463 294.60591675 -145.48025513 294.61419678 C-124.42187031 294.75751182 -102.62749907 292.55759166 -86.6640625 277.26953125 C-78.86346035 268.84091452 -76.34500758 260.71222485 -76.484375 249.33984375 C-77.11907651 239.93685841 -80.92024416 231.92238587 -87.62890625 225.30859375 C-95.97054406 218.32916835 -105.74771755 214.53414746 -116.14453125 211.8359375 C-116.96127823 211.6227034 -117.77802521 211.4094693 -118.61952209 211.18977356 C-128.15984569 208.75934254 -137.8119432 206.90409263 -147.47207642 205.02166748 C-190.45040167 196.60037066 -246.28326656 185.33764963 -272.92333984 146.42089844 C-288.62849934 121.96832304 -292.2220122 90.28921843 -286.25048828 62.11621094 C-280.11370465 35.39882526 -263.1473024 13.31146957 -240.08984375 -1.20703125 C-179.57268546 -37.61550006 -57.30943997 -49.74187297 0 0 Z " fill="#323940" transform="translate(6319.6953125,917.78515625)"/>
<path d="M0 0 C7.80573611 7.51467476 12.83814237 16.61047562 13.5078125 27.53125 C13.69244047 42.05531704 11.34277384 56.06532073 1.3046875 67.21875 C-3.7397316 65.72127274 -8.77511225 64.20231132 -13.7890625 62.60546875 C-44.39880391 52.92865822 -75.94074717 45.99466459 -108.1328125 45.96875 C-108.88687378 45.96807526 -109.64093506 45.96740051 -110.41784668 45.96670532 C-131.54701661 45.99670401 -155.93606858 47.43425976 -171.82421875 63.3515625 C-178.86860171 71.79305691 -180.3001773 79.68271651 -180.0390625 90.5625 C-179.20407208 99.4437617 -175.39309855 106.36429832 -168.6953125 112.21875 C-162.38659092 116.95029119 -155.70101146 119.76462368 -148.2421875 122.09375 C-147.0134491 122.47897324 -147.0134491 122.47897324 -145.7598877 122.87197876 C-136.38818998 125.72862829 -126.85524795 127.82376411 -117.28948975 129.91488647 C-98.8479399 133.9609687 -80.62170327 138.24742885 -62.6953125 144.21875 C-61.28137207 144.6832959 -61.28137207 144.6832959 -59.83886719 145.15722656 C-40.99308741 151.42618736 -21.58937908 159.08587475 -5.6953125 171.21875 C-4.75816406 171.92515625 -3.82101562 172.6315625 -2.85546875 173.359375 C17.51173713 189.3402279 28.9387832 210.62824543 32.8984375 236.02734375 C36.09972663 264.33745644 31.22945147 294.85843869 13.2421875 317.65625 C11.93793413 319.18416146 10.62601176 320.70557702 9.3046875 322.21875 C8.78777344 322.87875 8.27085937 323.53875 7.73828125 324.21875 C-1.0563213 335.15138876 -13.38741592 342.8333479 -25.6953125 349.21875 C-26.819375 349.81300781 -27.9434375 350.40726563 -29.1015625 351.01953125 C-44.44986816 358.67670586 -60.9425669 362.9654934 -77.7578125 366.03125 C-78.81895264 366.22605957 -79.88009277 366.42086914 -80.97338867 366.62158203 C-100.11057257 369.87781526 -119.31766026 370.59589362 -138.6953125 370.53125 C-139.80683685 370.52975952 -140.91836121 370.52826904 -142.06356812 370.5267334 C-159.77754137 370.48417197 -177.14950873 369.83165816 -194.6953125 367.21875 C-196.18901367 367.0019458 -196.18901367 367.0019458 -197.71289062 366.78076172 C-216.00260357 364.03365414 -234.21721968 359.80911751 -250.6953125 351.21875 C-251.62214844 350.78175781 -252.54898437 350.34476563 -253.50390625 349.89453125 C-261.48365996 345.94427019 -267.45028352 340.44546511 -273.6953125 334.21875 C-274.32695313 333.6103125 -274.95859375 333.001875 -275.609375 332.375 C-284.7015049 322.86323333 -286.10616366 310.0909787 -285.90234375 297.58203125 C-285.43751501 284.40998252 -279.84895278 275.23607949 -271.6953125 265.21875 C-268.21313479 265.81270519 -265.26284892 266.71825506 -262.0546875 268.1875 C-261.16177002 268.5894458 -260.26885254 268.9913916 -259.34887695 269.40551758 C-258.39070068 269.83888428 -257.43252441 270.27225098 -256.4453125 270.71875 C-225.87002691 284.23796853 -193.79767099 294.24653068 -160.09375 294.421875 C-159.21361237 294.42757507 -158.33347473 294.43327515 -157.42666626 294.43914795 C-155.57628554 294.44852298 -153.72588868 294.45510174 -151.87548828 294.45898438 C-149.09767295 294.46865475 -146.32061022 294.49973625 -143.54296875 294.53125 C-122.67993544 294.65546934 -102.42735814 291.78464272 -86.44140625 277.15625 C-79.36708764 269.8604518 -76.54902755 262.33278966 -76.1953125 252.21875 C-76.55572414 241.23820868 -80.40402255 232.16452288 -88.40234375 224.60546875 C-96.48350767 218.02144678 -106.17885989 214.41814207 -116.1484375 211.8359375 C-116.9649025 211.62298538 -117.78136749 211.41003326 -118.62257385 211.19062805 C-128.16210269 208.76273305 -137.81329426 206.9077356 -147.47207642 205.02557373 C-173.62641204 199.90081789 -199.2739674 194.20375566 -223.6953125 183.21875 C-224.40574707 182.89938477 -225.11618164 182.58001953 -225.84814453 182.25097656 C-243.63092151 174.10966338 -261.87228887 162.97803811 -272.6953125 146.21875 C-273.18257812 145.50847656 -273.66984375 144.79820312 -274.171875 144.06640625 C-289.70106952 120.13551931 -291.30989401 88.4923076 -285.94921875 61.18359375 C-279.67875521 34.68043452 -262.26643312 13.1276321 -239.57348633 -1.33178711 C-179.52707858 -38.0706552 -56.95803306 -49.35236099 0 0 Z " fill="#323940" transform="translate(2263.6953125,917.78125)"/>
<path d="M0 0 C21.06666796 -0.48813995 41.88480411 0.50039799 60.38574219 11.68701172 C71.95714283 23.57115292 71.13220185 42.18945904 70.99121094 57.58544922 C70.98678683 59.21931652 70.98373449 60.85318812 70.98205566 62.48706055 C70.96648052 68.47044346 70.92459761 74.45373469 70.88574219 80.43701172 C70.82386719 93.84326172 70.76199219 107.24951172 70.69824219 121.06201172 C108.97824219 121.06201172 147.25824219 121.06201172 186.69824219 121.06201172 C194.27330165 139.24215443 198.86837219 160.09555659 192.72949219 179.62060547 C189.27052834 187.80944032 185.01382154 192.67530304 176.69824219 196.06201172 C173.8449161 196.90040929 171.31466066 197.18592356 168.34490967 197.18226624 C167.4811673 197.1836409 166.61742493 197.18501556 165.72750854 197.18643188 C164.78811432 197.18283661 163.84872009 197.17924133 162.88085938 197.17553711 C161.88541107 197.17568314 160.88996277 197.17582916 159.86434937 197.17597961 C156.57458313 197.17528304 153.28487353 197.16750252 149.99511719 197.15966797 C147.71396923 197.15780288 145.43282087 197.15637941 143.15167236 197.15538025 C137.14785659 197.1515622 131.14406501 197.14173796 125.14025879 197.13067627 C119.01375658 197.12044686 112.88725047 197.11587935 106.76074219 197.11083984 C94.73989823 197.10011508 82.71907222 197.08304717 70.69824219 197.06201172 C70.75895462 216.09985149 70.83657895 235.13755216 70.9339571 254.17524052 C70.97879059 263.01614751 71.01823344 271.85701534 71.04467773 280.69799805 C71.06775917 288.41000927 71.10126898 296.12189525 71.14694375 303.83380693 C71.17074016 307.91157782 71.18955736 311.98922572 71.19585609 316.06706429 C71.20196916 319.91751421 71.22218851 323.76765 71.2525177 327.61798286 C71.26119956 329.01942246 71.26504139 330.42090328 71.26325035 331.82236862 C71.24795313 349.33996775 73.82713964 364.72313688 86.25683594 377.80810547 C101.58445358 391.95856208 124.51354148 394.88140781 144.58105469 394.36279297 C153.41748204 393.95159288 162.17639088 392.64991811 170.92919922 391.42578125 C175.17557155 390.86793477 179.43369536 390.4533027 183.69824219 390.06201172 C191.67436544 404.65982219 194.36942511 418.90442219 189.66308594 435.25732422 C185.40369877 447.63886263 177.48546463 457.99505899 165.69824219 464.06201172 C147.70963989 472.58518281 127.40109198 474.63750753 107.69824219 475.06201172 C106.54582031 475.10197266 105.39339844 475.14193359 104.20605469 475.18310547 C65.15289575 475.93583075 21.40893404 469.39467262 -8.44238281 441.94873047 C-40.29729201 409.62536673 -38.64425697 361.6430752 -38.53388906 319.47575688 C-38.52508615 315.23762797 -38.52818634 310.99950331 -38.5296936 306.7613678 C-38.53073204 299.45375837 -38.52456599 292.14618521 -38.51321793 284.8385849 C-38.49682229 274.2735967 -38.49174071 263.70862567 -38.48924194 253.14362612 C-38.48488664 235.99417836 -38.47163694 218.84474984 -38.45263672 201.6953125 C-38.43422143 185.05631607 -38.42009274 168.4173249 -38.41162109 151.77832031 C-38.41109565 150.7491891 -38.4105702 149.7200579 -38.41002883 148.6597409 C-38.40741837 143.49584597 -38.40489105 138.331951 -38.40240502 133.16805601 C-38.38174008 90.46602793 -38.34657432 47.76402083 -38.30175781 5.06201172 C-34.60701763 4.40769442 -30.91149609 3.75789705 -27.21582031 3.10888672 C-26.17433838 2.92438965 -25.13285645 2.73989258 -24.05981445 2.54980469 C-16.01024722 1.13961495 -8.17242563 0.22017354 0 0 Z " fill="#323940" transform="translate(3878.3017578125,811.93798828125)"/>
<path d="M0 0 C7.10056082 -0.1519626 14.10094044 0.14131454 21.16015625 0.93359375 C21.84432617 1.00360596 22.52849609 1.07361816 23.23339844 1.14575195 C25.15234375 1.390625 25.15234375 1.390625 28.28515625 2.12109375 C30.74061632 5.80428386 30.53649678 7.59619884 30.53912354 11.99145508 C30.54224352 12.69427266 30.5453635 13.39709024 30.54857802 14.12120533 C30.55657076 16.48192992 30.55022951 18.84239838 30.54394531 21.203125 C30.54665461 22.89326122 30.5502152 24.58339626 30.55456543 26.27352905 C30.56369898 30.86847695 30.5601412 35.46333525 30.55380726 40.05828476 C30.54875227 44.86153153 30.55343731 49.66477051 30.55657959 54.46801758 C30.5602207 62.53500754 30.55541635 70.60196091 30.54589844 78.66894531 C30.53501361 88.0023978 30.53853909 97.33576292 30.54955125 106.66921329 C30.55862001 114.67520681 30.55991142 122.68117399 30.55467391 130.68717098 C30.55155194 135.47209544 30.55115108 140.2569788 30.55774689 145.04190063 C30.56351374 149.53984299 30.55953559 154.03767244 30.54795837 158.53560257 C30.54530825 160.18882688 30.54608287 161.84206065 30.5504837 163.49528122 C30.55592675 165.74722767 30.54912038 167.99880939 30.53912354 170.25073242 C30.53799246 172.14332039 30.53799246 172.14332039 30.53683853 174.07414246 C30.28515625 177.12109375 30.28515625 177.12109375 28.28515625 180.12109375 C25.89697266 181.14501953 25.89697266 181.14501953 22.88671875 182.06640625 C21.77796387 182.41598389 20.66920898 182.76556152 19.52685547 183.12573242 C18.33334473 183.49545166 17.13983398 183.8651709 15.91015625 184.24609375 C-15.8184511 194.50043596 -43.36977432 211.387505 -70.71484375 230.12109375 C-72.32615516 231.21322542 -73.93805978 232.30448284 -75.55078125 233.39453125 C-83.44491966 238.74873744 -91.14340643 244.31632514 -98.71484375 250.12109375 C-99.79541177 250.94292026 -100.87614571 251.76452864 -101.95703125 252.5859375 C-117.65685936 264.55046473 -132.7179466 277.26857461 -147.17773438 290.70166016 C-148.81107303 292.20995605 -150.45701175 293.70356183 -152.10546875 295.1953125 C-157.35796465 299.96392763 -162.42890047 304.68530365 -166.984375 310.140625 C-169.07316088 312.53117678 -171.31756738 314.71699338 -173.58984375 316.93359375 C-177.86589934 321.16443425 -181.69983685 325.59703789 -185.44921875 330.296875 C-187.73270182 333.14335476 -190.09323296 335.9103392 -192.46484375 338.68359375 C-211.98466416 362.13155139 -227.51772169 388.68497156 -240.71484375 416.12109375 C-241.37484375 416.12109375 -242.03484375 416.12109375 -242.71484375 416.12109375 C-242.88842712 386.99951258 -243.05121295 357.87788849 -243.19915668 328.75616524 C-243.21667606 325.3094483 -243.23428644 321.86273182 -243.25195312 318.41601562 C-243.25546836 317.7299052 -243.2589836 317.04379478 -243.26260535 316.33689313 C-243.31956241 305.26215645 -243.38387314 294.18747428 -243.45095475 283.11279483 C-243.51974306 271.72899629 -243.58035004 260.34518063 -243.63398778 248.9612993 C-243.66432979 242.57565139 -243.69827329 236.19007029 -243.74110794 229.80449295 C-243.78139219 223.7816043 -243.81168731 217.75874423 -243.83465767 211.73576546 C-243.84474159 209.53732798 -243.85832709 207.338903 -243.87587929 205.14051247 C-244.10919164 175.23505296 -240.53404988 148.44836021 -221.71484375 124.12109375 C-221.12316406 123.33863281 -220.53148437 122.55617188 -219.921875 121.75 C-206.69650008 104.70699108 -190.96648369 90.00478402 -173.71484375 77.12109375 C-173.03969727 76.61610352 -172.36455078 76.11111328 -171.66894531 75.59082031 C-122.5937164 39.09322444 -62.75680736 2.04570035 0 0 Z " fill="#04A0F6" transform="translate(961.71484375,409.87890625)"/>
<path d="M0 0 C0.81758789 -0.00767395 1.63517578 -0.0153479 2.47753906 -0.02325439 C18.58037683 -0.14386433 37.36386394 -0.22164005 50.125 10.875 C50.82625 11.7 51.5275 12.525 52.25 13.375 C52.930625 14.096875 53.61125 14.81875 54.3125 15.5625 C62.24921944 27.08354435 62.5523684 41.06302794 62.49050903 54.57391357 C62.49138314 55.97020395 62.49313787 57.36649401 62.49568737 58.76278234 C62.5001247 62.56664182 62.49220749 66.37038705 62.48213124 70.17423201 C62.47344644 74.28857872 62.47642044 78.40291964 62.47793579 82.51727295 C62.47898148 89.63472759 62.47273806 96.75214539 62.46146011 103.86959076 C62.44516503 114.16005505 62.43999301 124.45050164 62.43748413 134.74097744 C62.4331133 151.43898202 62.41982085 168.13696699 62.40087891 184.83496094 C62.38250423 201.04980369 62.3683555 217.26464111 62.35986328 233.47949219 C62.35933783 234.47997002 62.35881239 235.48044785 62.35827102 236.51124319 C62.35566083 241.53064349 62.35313344 246.55004382 62.35064721 251.56944418 C62.32993379 293.17130975 62.29472498 334.77315375 62.25 376.375 C58.33459392 377.02862754 54.41747809 377.6714178 50.5 378.3125 C49.40816406 378.49490234 48.31632812 378.67730469 47.19140625 378.86523438 C22.46798864 382.8882757 -9.00718965 385.4326581 -32.0625 373.6875 C-41.91768498 365.20745711 -46.82223569 356.09613645 -48.06217855 343.10398573 C-48.63657106 334.45698925 -48.89087327 325.86448678 -48.87025452 317.19496155 C-48.87069203 315.83733059 -48.87157023 314.47969973 -48.87284368 313.1220693 C-48.87505331 309.43903538 -48.87111651 305.75603117 -48.86606562 302.07300103 C-48.86170987 298.0834524 -48.86321115 294.09390519 -48.8639679 290.10435486 C-48.86448991 283.2079587 -48.86137698 276.31157206 -48.85573006 269.4151783 C-48.84757111 259.44439443 -48.84499535 249.47361513 -48.84374207 239.50282829 C-48.84155843 223.3222768 -48.83491705 207.14173038 -48.82543945 190.96118164 C-48.8162475 175.251872 -48.8091754 159.54256374 -48.80493164 143.83325195 C-48.80466892 142.86343225 -48.80440619 141.89361254 -48.80413551 140.89440436 C-48.80283038 136.02865666 -48.8015667 131.16290894 -48.80032361 126.29716122 C-48.78997243 85.98977062 -48.7723729 45.6823856 -48.75 5.375 C-32.71111313 0.75526145 -16.60089552 0.06526753 0 0 Z " fill="#323940" transform="translate(5856.75,899.625)"/>
<path d="M0 0 C2.37926831 0.02955459 4.7563587 0.02037373 7.13574219 0.00756836 C21.30908191 0.02624705 37.0103822 0.54806966 49.21386719 8.46655273 C50.57511719 9.30186523 50.57511719 9.30186523 51.96386719 10.15405273 C63.52496324 22.03629034 64.36937877 37.47757813 64.3341217 53.10215759 C64.33455809 54.4982569 64.33543423 55.89435613 64.33671087 57.29045492 C64.33894267 61.11698038 64.33495255 64.94347775 64.32993281 68.76999962 C64.32560961 72.90011284 64.32707606 77.03022451 64.32783508 81.16033936 C64.32835913 88.31279309 64.32522475 95.46523769 64.31959724 102.61768913 C64.31146614 112.95890095 64.30886537 123.30010837 64.30760925 133.64132304 C64.30542127 150.41973869 64.29876804 167.19814948 64.28930664 183.9765625 C64.28012597 200.27408829 64.27304834 216.57161277 64.26879883 232.86914062 C64.2685361 233.87391907 64.26827338 234.87869752 64.2680027 235.91392379 C64.26669765 240.95466136 64.26543394 245.99539893 64.26419079 251.03613651 C64.25382607 292.84627863 64.23621464 334.65641541 64.21386719 376.46655273 C60.2984611 377.12018027 56.38134528 377.76297053 52.46386719 378.40405273 C51.37203125 378.58645508 50.28019531 378.76885742 49.15527344 378.95678711 C24.50593581 382.967774 -7.22619289 385.60874381 -30.16113281 373.71655273 C-39.08025452 366.07159127 -44.13904917 357.20036201 -45.78613281 345.46655273 C-45.87170295 343.44667825 -45.90992336 341.42442847 -45.90918064 339.40274239 C-45.91117169 338.2029582 -45.91316274 337.00317402 -45.91521412 335.76703274 C-45.91230128 334.45769642 -45.90938844 333.1483601 -45.90638733 331.79934692 C-45.90682357 330.38761147 -45.90769945 328.9758761 -45.9089765 327.56414115 C-45.9112111 323.68975021 -45.9072143 319.81538693 -45.90219843 315.94099951 C-45.89787929 311.76110682 -45.8993414 307.5812157 -45.90010071 303.40132141 C-45.90062501 296.16099808 -45.89748795 288.92068376 -45.89186287 281.6803627 C-45.88373524 271.21207853 -45.88113135 260.74379871 -45.87987488 250.27551173 C-45.87768635 233.29133803 -45.87103164 216.30716914 -45.86157227 199.32299805 C-45.85239301 182.8246259 -45.84531468 166.32625505 -45.84106445 149.82788086 C-45.84080173 148.81089171 -45.84053901 147.79390256 -45.84026832 146.74609555 C-45.83896328 141.64415107 -45.83769957 136.54220658 -45.83645642 131.44026208 C-45.82609 89.11568897 -45.80847708 46.7911211 -45.78613281 4.46655273 C-41.34221901 3.80167159 -36.89663969 3.14863141 -32.45068359 2.49755859 C-30.58111748 2.2176218 -30.58111748 2.2176218 -28.67378235 1.93202972 C-19.07278684 0.53470774 -9.69393861 -0.13042533 0 0 Z " fill="#323940" transform="translate(4717.7861328125,899.533447265625)"/>
<path d="M0 0 C11.03827634 10.7109469 17.67746165 24.53441512 18.6875 39.9375 C18.7390625 40.64519531 18.790625 41.35289062 18.84375 42.08203125 C19.51972588 59.06592515 14.01370452 73.72141921 2.96484375 86.53515625 C-8.81322857 98.95970938 -24.67326864 103.80220821 -41.42675781 104.28930664 C-59.59862727 104.46145738 -75.86921383 100.10298758 -89.19921875 87.1875 C-101.74510946 73.82995277 -106.14458862 58.38831624 -105.59375 40.3046875 C-104.70829337 23.32605657 -97.43547524 10.36433801 -85.3125 -1.0625 C-62.1576166 -20.38457847 -22.76586325 -18.8661552 0 0 Z " fill="#323940" transform="translate(4770.3125,728.0625)"/>
<path d="M0 0 C12.31260149 10.09334576 19.65541426 24.50313074 21.23388672 40.26123047 C22.48059895 57.66063188 18.54199474 73.77860593 7.23828125 87.20703125 C-3.35389904 99.02425919 -17.91795648 105.43721905 -33.66162109 106.34375 C-52.20810005 107.12613679 -69.37323689 104.39571302 -83.93359375 91.97265625 C-95.85214265 80.426562 -102.63114329 66.72767942 -102.93920898 50.08203125 C-102.89971416 32.60814675 -99.13671765 17.82288317 -86.68359375 4.84765625 C-63.6654943 -16.72102764 -25.67897289 -17.83806514 0 0 Z " fill="#323940" transform="translate(5904.55859375,725.77734375)"/>
<path d="M0 0 C0.66 0.33 1.32 0.66 2 1 C-10.21 13.21 -22.42 25.42 -35 38 C-35.66 37.67 -36.32 37.34 -37 37 C-15.44617422 13.82207833 -15.44617422 13.82207833 -5.6953125 5.47265625 C-3.69997138 3.73937606 -1.83007366 1.90632672 0 0 Z " fill="#40C4F0" transform="translate(865,718)"/>
<path d="M0 0 C0.66 0.33 1.32 0.66 2 1 C-6.91 9.91 -15.82 18.82 -25 28 C-25.66 27.67 -26.32 27.34 -27 27 C-18.37875421 17.53860282 -9.55367699 8.52213379 0 0 Z " fill="#42B2FE" transform="translate(774,498)"/>
<path d="M0 0 C5.84450583 1.53802785 11.12711522 4.4560838 16 8 C16 8.66 16 9.32 16 10 C11.94513862 9.37011862 9.10576554 7.26959988 5.75 5 C4.67234375 4.278125 3.5946875 3.55625 2.484375 2.8125 C1.66453125 2.214375 0.8446875 1.61625 0 1 C0 0.67 0 0.34 0 0 Z " fill="#EEFAFD" transform="translate(1353,890)"/>
<path d="M0 0 C0.66 0.33 1.32 0.66 2 1 C-2.62 5.62 -7.24 10.24 -12 15 C-12.66 14.67 -13.32 14.34 -14 14 C-11.03750349 9.92656729 -7.61640648 6.79433834 -3.8046875 3.55078125 C-1.92288746 1.97318991 -1.92288746 1.97318991 0 0 Z " fill="#40B1FE" transform="translate(401,1320)"/>
</svg>
