<?xml version="1.0" encoding="UTF-8"?>
<svg version="1.1" xmlns="http://www.w3.org/2000/svg" width="1611" height="1611">
<path d="M0 0 C1.6871965 0.00223572 1.6871965 0.00223572 3.40847778 0.0045166 C19.7701941 0.04351222 35.7873178 0.45888493 51.9375 3.3125 C52.81132324 3.45703613 53.68514648 3.60157227 54.58544922 3.75048828 C86.82699921 9.15701003 119.40438327 21.1104115 143.9375 43.3125 C144.93007812 44.17488281 145.92265625 45.03726563 146.9453125 45.92578125 C153.68646814 51.85017932 159.48594851 58.15669701 164.9375 65.3125 C165.91783203 66.55193359 165.91783203 66.55193359 166.91796875 67.81640625 C198.55152524 109.17365077 206.18475995 164.31033479 206.125 214.875 C206.12439575 215.82236023 206.1237915 216.76972046 206.12316895 217.74578857 C206.07267441 247.04555227 203.91514162 276.40820901 198.9375 305.3125 C195.91966954 304.70909956 193.89849471 303.78861188 191.40234375 302.00390625 C168.52975825 286.16703933 142.77869338 273.52136652 116.9375 263.3125 C116.27588867 263.04695313 115.61427734 262.78140625 114.93261719 262.5078125 C70.58532265 245.05969662 17.00788214 249.03300819 -26.12597656 267.62744141 C-30.14940268 269.43476002 -34.11432057 271.34691929 -38.0625 273.3125 C-38.78695312 273.66924805 -39.51140625 274.02599609 -40.2578125 274.39355469 C-56.87327646 282.64841928 -72.74856736 292.48832946 -87.0625 304.3125 C-87.63838867 304.786875 -88.21427734 305.26125 -88.80761719 305.75 C-101.35220107 316.14853256 -112.40263063 327.16972476 -122.0625 340.3125 C-122.47999512 340.88033203 -122.89749023 341.44816406 -123.32763672 342.03320312 C-149.93998303 378.81123348 -162.33731207 424.30250748 -171.16015625 468.20703125 C-171.30664738 468.93544472 -171.4531385 469.66385818 -171.60406876 470.41434479 C-176.3940468 494.3688014 -180.34244569 518.48202686 -184.4375 542.5625 C-189.07994088 569.85824223 -193.73962846 597.14409085 -198.94140625 624.33984375 C-199.21716806 625.78715 -199.21716806 625.78715 -199.49850082 627.26369476 C-210.65635496 685.65633613 -229.7572507 745.14207468 -264.0625 794.3125 C-264.49546387 794.93930664 -264.92842773 795.56611328 -265.37451172 796.21191406 C-270.644152 803.81859362 -276.19615005 811.15415631 -282.0625 818.3125 C-283.03703125 819.54806641 -283.03703125 819.54806641 -284.03125 820.80859375 C-296.48798212 836.44922942 -310.76605217 851.42254577 -326.0625 864.3125 C-326.99191406 865.11945312 -327.92132812 865.92640625 -328.87890625 866.7578125 C-403.7609213 931.50126793 -499.13383129 963.23259882 -613.0625 974.3125 C-613.71634674 974.35453552 -614.37019348 974.39657104 -615.04385376 974.43988037 C-630.14893889 975.38000022 -645.24371844 975.55514588 -660.375 975.5625 C-661.63717346 975.56317474 -662.89934692 975.56384949 -664.19976807 975.56454468 C-711.00422498 975.52522185 -757.39210185 971.30652316 -803.625 964.125 C-804.44735138 963.99862152 -805.26970276 963.87224304 -806.11697388 963.74203491 C-808.41422612 963.38551309 -810.70928756 963.0175869 -813.00390625 962.64453125 C-814.94825562 962.33092651 -814.94825562 962.33092651 -816.93188477 962.01098633 C-820.0625 961.3125 -820.0625 961.3125 -823.0625 959.3125 C-823.93481445 956.39404297 -823.93481445 956.39404297 -824.61328125 952.6796875 C-824.73633133 952.01049286 -824.85938141 951.34129822 -824.98616028 950.65182495 C-831.71342692 913.14865918 -834.15784778 871.8958847 -827.0625 834.3125 C-826.88557617 833.3436084 -826.70865234 832.3747168 -826.52636719 831.37646484 C-819.25516377 792.52764314 -801.99168878 753.13260431 -771.0625 727.3125 C-770.28519531 726.62414063 -769.50789063 725.93578125 -768.70703125 725.2265625 C-733.68829395 695.02886165 -685.68315019 689.97962966 -641.6875 683.75 C-604.39924234 678.72344009 -604.39924234 678.72344009 -568.125 669 C-566.42718384 668.42306396 -566.42718384 668.42306396 -564.69506836 667.83447266 C-555.70953505 664.70242021 -547.34721739 660.97084517 -539.0625 656.3125 C-537.50982422 655.48685547 -537.50982422 655.48685547 -535.92578125 654.64453125 C-506.83044556 638.63258834 -487.03854003 611.34186058 -477.72087097 579.7301178 C-472.60069129 560.92819903 -470.28197584 541.34231662 -467.56219864 522.07899475 C-467.13645429 519.07341373 -466.70482059 516.06868958 -466.27320004 513.06394768 C-463.72698768 495.33483759 -461.27159303 477.59438293 -458.86401367 459.84594727 C-454.15178456 425.12071059 -449.13476323 390.44370986 -441.0625 356.3125 C-440.77826172 355.10577637 -440.49402344 353.89905273 -440.20117188 352.65576172 C-420.26666393 269.22575574 -378.66584838 187.90020094 -311.234375 129.20703125 C-309.09268735 127.33883249 -307.01611651 125.41027435 -304.94238281 123.46728516 C-298.56913822 117.51795852 -291.89045705 112.10433959 -284.97705078 106.79882812 C-283.0060207 105.26865328 -281.06213565 103.70862661 -279.12109375 102.140625 C-237.76963662 68.95957186 -189.86803293 44.05243814 -140.0625 26.3125 C-139.06186523 25.94946777 -138.06123047 25.58643555 -137.03027344 25.21240234 C-107.11582723 14.42397575 -75.60008535 6.50751807 -44.0625 2.3125 C-43.39721283 2.22247711 -42.73192566 2.13245422 -42.04647827 2.03970337 C-28.03590666 0.19566739 -14.11690125 -0.04624531 0 0 Z " fill="#03A4F3" transform="translate(952.0625,408.6875)"/>
<path d="M0 0 C6.52674331 0.91514921 12.12243401 3.25442188 18.1875 5.75 C19.37351807 6.23662109 20.55953613 6.72324219 21.78149414 7.22460938 C41.80565771 15.52056909 61.23321849 25.16063191 80 36 C81.23024902 36.70890381 81.23024902 36.70890381 82.48535156 37.43212891 C106.68821074 51.46379039 129.96120171 67.53059518 151 86 C151.7321875 86.63292969 152.464375 87.26585937 153.21875 87.91796875 C155.15763749 89.59910731 157.07917227 91.29826597 159 93 C160.03761475 93.91036011 160.03761475 93.91036011 161.09619141 94.83911133 C167.7948382 100.77927431 174.16200447 107.00803473 180.47827148 113.34790039 C182.19207233 115.0670867 183.91119082 116.78082583 185.63085938 118.49414062 C191.29930748 124.15849573 196.85180705 129.85120742 202 136 C202.53278564 136.62608154 203.06557129 137.25216309 203.61450195 137.8972168 C262.60546363 207.51797201 301.55837858 294.43113392 313 385 C313.12535126 385.98821747 313.12535126 385.98821747 313.25323486 386.99639893 C318.36018399 427.98688299 317.88171162 470.13514903 312 511 C311.89109436 511.75800903 311.78218872 512.51601807 311.66998291 513.29699707 C305.48433436 555.80321652 293.83836746 596.89107285 276 636 C275.33750244 637.46518066 275.33750244 637.46518066 274.66162109 638.95996094 C267.91659249 653.77981567 260.22159178 667.95322218 252 682 C251.4932373 682.87285645 250.98647461 683.74571289 250.46435547 684.64501953 C240.67501084 701.47274676 229.92586005 717.60707731 218 733 C217.58572754 733.53898926 217.17145508 734.07797852 216.74462891 734.63330078 C203.18721597 752.25643178 188.43601509 768.62874235 172.75 784.375 C171.91017578 785.21949707 171.07035156 786.06399414 170.20507812 786.93408203 C165.29734413 791.82920722 160.27253983 796.50181956 155 801 C154.03578125 801.845625 153.0715625 802.69125 152.078125 803.5625 C128.21173056 824.13243112 101.71247403 842.03838627 74 857 C73.05012207 857.51868652 72.10024414 858.03737305 71.12158203 858.57177734 C22.64111531 884.93584906 -31.24012731 903.37003976 -85.8125 911.8125 C-87.06095703 912.00755127 -88.30941406 912.20260254 -89.59570312 912.40356445 C-110.81285922 915.49477865 -132.08054775 916.38222354 -153.5 916.3125 C-154.67355042 916.31067719 -155.84710083 916.30885437 -157.05621338 916.30697632 C-176.20728574 916.25714347 -195.00253376 915.54711879 -214 913 C-214.98661621 912.8691803 -214.98661621 912.8691803 -215.99316406 912.73571777 C-294.12683613 902.31383902 -370.95650756 874.01028499 -434 826 C-433.39126164 822.76012927 -432.31175583 820.78359537 -430.296875 818.19140625 C-429.73516602 817.455271 -429.17345703 816.71913574 -428.59472656 815.96069336 C-427.9859668 815.16928955 -427.37720703 814.37788574 -426.75 813.5625 C-411.90531129 793.82745947 -399.72209019 772.16873265 -388.95898438 749.97119141 C-388.01000937 748.02057424 -387.04449282 746.07876524 -386.078125 744.13671875 C-356.49623023 683.88776423 -344.67441963 616.45850004 -333 551 C-328.75870972 552.41376343 -327.65024759 555.50897726 -325.5 559.1875 C-320.57878277 567.31686401 -315.07517093 574.70449796 -309 582 C-308.49114258 582.61182129 -307.98228516 583.22364258 -307.45800781 583.85400391 C-270.93828737 627.53955915 -219.57974609 653.28889887 -163 659 C-161.41445313 659.16628906 -161.41445313 659.16628906 -159.796875 659.3359375 C-101.07148721 664.68775855 -46.21644197 643.96533087 -1.4375 606.6875 C10.74198598 596.30852563 21.52062434 584.88061344 31 572 C31.63164063 571.15179687 32.26328125 570.30359375 32.9140625 569.4296875 C52.75407008 541.979814 64.4405582 510.28268925 70 477 C70.12987305 476.24589844 70.25974609 475.49179687 70.39355469 474.71484375 C77.53828243 431.24607999 67.98850208 388.39568713 49.80126953 348.95288086 C45.01828765 337.2956377 48.36894419 322.03362089 50.08203125 309.90234375 C50.30014051 308.2956854 50.51712853 306.6888745 50.733078 305.08192444 C51.30006981 300.87922964 51.87855216 296.67821187 52.46075439 292.4776001 C59.29146058 243.93293 59.29146058 243.93293 61.375 195 C61.37067963 193.9339151 61.36635925 192.8678302 61.36190796 191.7694397 C61.27830828 174.02635583 60.51746582 156.58541981 58 139 C57.82839355 137.78699219 57.65678711 136.57398438 57.47998047 135.32421875 C50.2946113 86.26593414 33.17771251 42.20239051 1.43359375 3.9609375 C0 2 0 2 0 0 Z " fill="#02AFEA" transform="translate(1146,430)"/>
<path d="M0 0 C7.10056082 -0.1519626 14.10094044 0.14131454 21.16015625 0.93359375 C21.84432617 1.00360596 22.52849609 1.07361816 23.23339844 1.14575195 C25.15234375 1.390625 25.15234375 1.390625 28.28515625 2.12109375 C30.74061632 5.80428386 30.53649678 7.59619884 30.53912354 11.99145508 C30.54224352 12.69427266 30.5453635 13.39709024 30.54857802 14.12120533 C30.55657076 16.48192992 30.55022951 18.84239838 30.54394531 21.203125 C30.54665461 22.89326122 30.5502152 24.58339626 30.55456543 26.27352905 C30.56369898 30.86847695 30.5601412 35.46333525 30.55380726 40.05828476 C30.54875227 44.86153153 30.55343731 49.66477051 30.55657959 54.46801758 C30.5602207 62.53500754 30.55541635 70.60196091 30.54589844 78.66894531 C30.53501361 88.0023978 30.53853909 97.33576292 30.54955125 106.66921329 C30.55862001 114.67520681 30.55991142 122.68117399 30.55467391 130.68717098 C30.55155194 135.47209544 30.55115108 140.2569788 30.55774689 145.04190063 C30.56351374 149.53984299 30.55953559 154.03767244 30.54795837 158.53560257 C30.54530825 160.18882688 30.54608287 161.84206065 30.5504837 163.49528122 C30.55592675 165.74722767 30.54912038 167.99880939 30.53912354 170.25073242 C30.53799246 172.14332039 30.53799246 172.14332039 30.53683853 174.07414246 C30.28515625 177.12109375 30.28515625 177.12109375 28.28515625 180.12109375 C25.89697266 181.14501953 25.89697266 181.14501953 22.88671875 182.06640625 C21.77796387 182.41598389 20.66920898 182.76556152 19.52685547 183.12573242 C18.33334473 183.49545166 17.13983398 183.8651709 15.91015625 184.24609375 C-15.8184511 194.50043596 -43.36977432 211.387505 -70.71484375 230.12109375 C-72.32615516 231.21322542 -73.93805978 232.30448284 -75.55078125 233.39453125 C-83.44491966 238.74873744 -91.14340643 244.31632514 -98.71484375 250.12109375 C-99.79541177 250.94292026 -100.87614571 251.76452864 -101.95703125 252.5859375 C-117.65685936 264.55046473 -132.7179466 277.26857461 -147.17773438 290.70166016 C-148.81107303 292.20995605 -150.45701175 293.70356183 -152.10546875 295.1953125 C-157.35796465 299.96392763 -162.42890047 304.68530365 -166.984375 310.140625 C-169.07316088 312.53117678 -171.31756738 314.71699338 -173.58984375 316.93359375 C-177.86589934 321.16443425 -181.69983685 325.59703789 -185.44921875 330.296875 C-187.73270182 333.14335476 -190.09323296 335.9103392 -192.46484375 338.68359375 C-211.98466416 362.13155139 -227.51772169 388.68497156 -240.71484375 416.12109375 C-241.37484375 416.12109375 -242.03484375 416.12109375 -242.71484375 416.12109375 C-242.88842712 386.99951258 -243.05121295 357.87788849 -243.19915668 328.75616524 C-243.21667606 325.3094483 -243.23428644 321.86273182 -243.25195312 318.41601562 C-243.25546836 317.7299052 -243.2589836 317.04379478 -243.26260535 316.33689313 C-243.31956241 305.26215645 -243.38387314 294.18747428 -243.45095475 283.11279483 C-243.51974306 271.72899629 -243.58035004 260.34518063 -243.63398778 248.9612993 C-243.66432979 242.57565139 -243.69827329 236.19007029 -243.74110794 229.80449295 C-243.78139219 223.7816043 -243.81168731 217.75874423 -243.83465767 211.73576546 C-243.84474159 209.53732798 -243.85832709 207.338903 -243.87587929 205.14051247 C-244.10919164 175.23505296 -240.53404988 148.44836021 -221.71484375 124.12109375 C-221.12316406 123.33863281 -220.53148437 122.55617188 -219.921875 121.75 C-206.69650008 104.70699108 -190.96648369 90.00478402 -173.71484375 77.12109375 C-173.03969727 76.61610352 -172.36455078 76.11111328 -171.66894531 75.59082031 C-122.5937164 39.09322444 -62.75680736 2.04570035 0 0 Z " fill="#04A0F6" transform="translate(743.71484375,223.87890625)"/>
<path d="M0 0 C0.66 0.33 1.32 0.66 2 1 C-10.21 13.21 -22.42 25.42 -35 38 C-35.66 37.67 -36.32 37.34 -37 37 C-15.44617422 13.82207833 -15.44617422 13.82207833 -5.6953125 5.47265625 C-3.69997138 3.73937606 -1.83007366 1.90632672 0 0 Z " fill="#40C4F0" transform="translate(647,532)"/>
<path d="M0 0 C0.66 0.33 1.32 0.66 2 1 C-6.91 9.91 -15.82 18.82 -25 28 C-25.66 27.67 -26.32 27.34 -27 27 C-18.37875421 17.53860282 -9.55367699 8.52213379 0 0 Z " fill="#42B2FE" transform="translate(556,312)"/>
<path d="M0 0 C5.84450583 1.53802785 11.12711522 4.4560838 16 8 C16 8.66 16 9.32 16 10 C11.94513862 9.37011862 9.10576554 7.26959988 5.75 5 C4.67234375 4.278125 3.5946875 3.55625 2.484375 2.8125 C1.66453125 2.214375 0.8446875 1.61625 0 1 C0 0.67 0 0.34 0 0 Z " fill="#EEFAFD" transform="translate(1135,704)"/>
<path d="M0 0 C0.66 0.33 1.32 0.66 2 1 C-2.62 5.62 -7.24 10.24 -12 15 C-12.66 14.67 -13.32 14.34 -14 14 C-11.03750349 9.92656729 -7.61640648 6.79433834 -3.8046875 3.55078125 C-1.92288746 1.97318991 -1.92288746 1.97318991 0 0 Z " fill="#40B1FE" transform="translate(183,1134)"/>
</svg>
