<svg width="184" height="64" viewBox="0 0 184 64" fill="none" xmlns="http://www.w3.org/2000/svg">
<path d="M70.8781 47.7938C70.8781 52.8182 66.8047 56.8901 61.7818 56.8901C56.7588 56.8901 52.6855 52.8167 52.6855 47.7938H45.5756C45.5756 56.7443 52.8312 64 61.7818 64C70.7323 64 77.988 56.7443 77.988 47.7938H70.8796H70.8781Z" fill="#0C31CD"/>
<path d="M27.9029 22.314C28.1959 23.2666 28.2349 24.3018 28.2319 24.8307L28.2394 24.8172V26.8756C29.6909 23.7804 32.8341 21.6363 36.4793 21.6363C40.4249 21.6363 43.7845 24.1501 45.0437 27.663C45.9091 23.4799 48.223 20.3817 48.4409 20.0978L48.4454 20.0902L48.4604 20.0707C48.495 20.0271 48.531 19.9851 48.5656 19.9415C45.5981 16.6194 41.2813 14.5264 36.4763 14.5264C33.4667 14.5264 30.651 15.3468 28.2364 16.7757V16.7802C27.9449 16.95 27.6595 17.1273 27.38 17.3136V0H20.2715V14.4663C21.5066 14.8795 22.6275 15.4384 23.6297 16.1431C25.8294 17.6892 27.2658 19.7642 27.9014 22.314" fill="#0C31CD"/>
<path d="M61.7817 14.5264C61.6209 14.5264 61.4602 14.5294 61.3009 14.5339C61.2468 14.5354 61.1942 14.5384 61.1401 14.5399C61.0335 14.5444 60.9283 14.5474 60.8231 14.555C60.76 14.558 60.6969 14.564 60.6323 14.5685C60.5376 14.5745 60.443 14.582 60.3483 14.5895C60.2807 14.5955 60.2131 14.603 60.147 14.609C60.0568 14.6181 59.9667 14.6271 59.878 14.6376C59.8089 14.6451 59.7398 14.6556 59.6707 14.6646C59.5835 14.6752 59.4979 14.6872 59.4107 14.6992C59.3401 14.7097 59.271 14.7202 59.2019 14.7322C59.1177 14.7458 59.0336 14.7593 58.9495 14.7743C58.8788 14.7863 58.8097 14.7999 58.7391 14.8134C58.6565 14.8299 58.5738 14.8449 58.4912 14.863C58.4206 14.878 58.3515 14.893 58.2823 14.908C58.2012 14.9261 58.1201 14.9441 58.0374 14.9636C57.9683 14.9802 57.8992 14.9967 57.8301 15.0147C57.7489 15.0358 57.6693 15.0553 57.5882 15.0778C57.5191 15.0959 57.4514 15.1154 57.3838 15.1334C57.3042 15.156 57.2246 15.18 57.1449 15.2025C57.0773 15.2221 57.0097 15.2431 56.9436 15.2641C56.864 15.2897 56.7843 15.3152 56.7047 15.3408C56.6386 15.3618 56.5725 15.3843 56.5079 15.4069C56.4282 15.4339 56.3486 15.464 56.269 15.4925C56.2058 15.5151 56.1412 15.5376 56.0781 15.5616C55.997 15.5917 55.9159 15.6232 55.8362 15.6563C55.7761 15.6803 55.7145 15.7044 55.6544 15.7284C55.5718 15.763 55.4891 15.7975 55.4065 15.8336C55.3494 15.8576 55.2938 15.8817 55.2367 15.9057C55.1481 15.9448 55.0609 15.9853 54.9723 16.0259C54.9227 16.0485 54.8731 16.071 54.825 16.0935C54.816 16.098 54.807 16.1026 54.798 16.1071C54.7063 16.1506 54.6132 16.1957 54.523 16.2423C54.5035 16.2513 54.4855 16.2618 54.4659 16.2723C54.4539 16.2783 54.4404 16.2844 54.4284 16.2904C54.2 16.4076 53.9746 16.5293 53.7522 16.6555C51.9747 17.6727 50.4076 19.016 49.1335 20.6041C49.1335 20.6041 45.5785 25.1733 45.5785 30.7311C45.5785 32.5882 45.0211 34.3146 44.0655 35.7541C43.8897 36.0185 43.7018 36.2739 43.5005 36.5173C43.4074 36.63 43.3127 36.7397 43.215 36.8479C43.1053 36.9696 42.9912 37.0868 42.8755 37.2025C42.62 37.4534 42.3511 37.6908 42.0686 37.9117C42.0656 37.9132 42.0626 37.9162 42.0596 37.9177C42.01 37.9568 41.9589 37.9943 41.9078 38.0334C41.8988 38.0394 41.8898 38.0469 41.8823 38.0529C41.8342 38.0875 41.7861 38.122 41.738 38.1566C41.726 38.1656 41.7125 38.1746 41.7005 38.1836C41.6539 38.2167 41.6073 38.2482 41.5608 38.2798C41.5457 38.2903 41.5307 38.2993 41.5157 38.3099C41.4706 38.3399 41.424 38.37 41.3774 38.4C41.3609 38.4105 41.3444 38.421 41.3264 38.4316C41.2813 38.4601 41.2362 38.4887 41.1896 38.5157C41.1716 38.5262 41.1536 38.5367 41.1355 38.5488C41.0905 38.5758 41.0439 38.6028 40.9988 38.6284C40.9808 38.6389 40.9612 38.6494 40.9417 38.6599C40.8951 38.6855 40.8501 38.711 40.8035 38.7366C40.7839 38.7471 40.7644 38.7576 40.7449 38.7681C40.6983 38.7937 40.6517 38.8177 40.6051 38.8418C40.5871 38.8508 40.5676 38.8613 40.548 38.8703C40.5 38.8943 40.4519 38.9184 40.4038 38.9409C40.3873 38.9484 40.3692 38.9574 40.3512 38.965C40.3001 38.989 40.2506 39.013 40.1995 39.0356C40.1874 39.0416 40.1754 39.0461 40.1649 39.0506C39.9816 39.1317 39.7953 39.2069 39.6045 39.2775C39.597 39.2805 39.5909 39.2835 39.5834 39.285C39.5369 39.3015 39.4903 39.318 39.4437 39.3331C39.4182 39.3421 39.3926 39.3511 39.3656 39.3601C39.3235 39.3736 39.2814 39.3872 39.2394 39.4007C39.2078 39.4112 39.1762 39.4202 39.1462 39.4307C39.1056 39.4428 39.0666 39.4548 39.026 39.4668C38.9929 39.4773 38.9584 39.4863 38.9238 39.4953C38.8848 39.5059 38.8457 39.5164 38.8066 39.5269C38.7706 39.5359 38.7345 39.5449 38.6999 39.5539C38.6609 39.563 38.6233 39.572 38.5843 39.5825C38.5467 39.5915 38.5106 39.6005 38.4731 39.608C38.4355 39.6171 38.3979 39.6246 38.3604 39.6321C38.3213 39.6396 38.2837 39.6486 38.2447 39.6561C38.2071 39.6636 38.1696 39.6711 38.1335 39.6771C38.0944 39.6847 38.0539 39.6922 38.0133 39.6982C37.9772 39.7042 37.9397 39.7102 37.9021 39.7162C37.8615 39.7222 37.8195 39.7282 37.7789 39.7342C37.7428 39.7388 37.7068 39.7448 37.6707 39.7493C37.6286 39.7553 37.5851 39.7598 37.543 39.7643C37.5069 39.7688 37.4724 39.7733 37.4363 39.7763C37.3927 39.7808 37.3477 39.7853 37.3041 39.7883C37.2695 39.7913 37.235 39.7944 37.2004 39.7974C37.1538 39.8004 37.1058 39.8034 37.0592 39.8064C37.0276 39.8079 36.9946 39.8109 36.963 39.8124C36.9104 39.8154 36.8563 39.8169 36.8038 39.8184C36.7767 39.8184 36.7512 39.8199 36.7241 39.8214C36.643 39.8229 36.5634 39.8244 36.4822 39.8244C32.8596 39.8244 29.7314 37.7073 28.2694 34.6422C28.4482 35.4385 28.5384 36.31 28.5384 37.2536C28.5384 39.276 27.8773 41.1256 26.5731 42.7498C26.4424 42.9121 26.3071 43.0698 26.1659 43.2246C28.9681 45.5415 32.5621 46.9328 36.4822 46.9328C36.625 46.9328 36.7677 46.9298 36.9089 46.9268C36.939 46.9268 36.969 46.9268 36.9991 46.9238C37.1373 46.9193 37.274 46.9133 37.4123 46.9058C37.4363 46.9058 37.4604 46.9028 37.4829 46.9013C37.6091 46.8938 37.7338 46.8848 37.8585 46.8742C37.8811 46.8727 37.9036 46.8712 37.9261 46.8682C38.0614 46.8562 38.1966 46.8427 38.3303 46.8277C38.3619 46.8246 38.3919 46.8201 38.4235 46.8171C38.5602 46.8006 38.6954 46.7841 38.8307 46.7646C38.8382 46.7646 38.8457 46.7631 38.8532 46.7616C38.9824 46.742 39.1116 46.721 39.2409 46.6999C39.2724 46.6939 39.304 46.6894 39.3355 46.6834C39.4647 46.6609 39.5939 46.6353 39.7232 46.6098C39.7517 46.6038 39.7788 46.5978 39.8073 46.5918C39.9215 46.5677 40.0357 46.5437 40.1484 46.5166C40.1739 46.5106 40.1995 46.5046 40.2235 46.4986C40.3497 46.4686 40.4744 46.437 40.5991 46.4055C40.6337 46.3964 40.6683 46.3874 40.7028 46.3784C40.8275 46.3453 40.9522 46.3108 41.0769 46.2732C41.095 46.2672 41.1115 46.2627 41.1295 46.2567C41.2407 46.2237 41.3519 46.1891 41.4616 46.153C41.4961 46.1425 41.5307 46.1305 41.5668 46.12C41.6855 46.0809 41.8027 46.0403 41.9199 45.9983C41.9529 45.9862 41.986 45.9742 42.019 45.9622C42.1182 45.9261 42.2174 45.8886 42.315 45.851C42.3436 45.8405 42.3736 45.8285 42.4022 45.818C42.5164 45.7729 42.629 45.7263 42.7417 45.6797C42.7793 45.6647 42.8169 45.6482 42.8544 45.6317C42.9656 45.5836 43.0753 45.5355 43.185 45.4859C43.2135 45.4724 43.2406 45.4604 43.2691 45.4468C43.3623 45.4033 43.4554 45.3597 43.5471 45.3146C43.5847 45.2966 43.6222 45.2786 43.6598 45.2605C43.7665 45.2079 43.8716 45.1538 43.9768 45.0998C44.0129 45.0802 44.0504 45.0607 44.0865 45.0412C44.1721 44.9961 44.2563 44.9495 44.3419 44.9029C44.3735 44.8849 44.405 44.8684 44.4351 44.8503C44.5373 44.7917 44.6394 44.7331 44.7416 44.673C44.7807 44.6505 44.8182 44.6265 44.8573 44.6039C44.9565 44.5438 45.0556 44.4822 45.1548 44.4206C46.6723 43.4575 48.0186 42.251 49.138 40.8536C49.138 40.8536 52.693 36.2845 52.693 30.7266C52.693 30.2098 52.7365 29.7034 52.8192 29.2106C52.8297 29.1445 52.8417 29.0768 52.8552 29.0122C52.8552 29.0122 52.8552 29.0107 52.8552 29.0092C52.9694 28.4097 53.1437 27.8313 53.3691 27.2813V27.2783C53.3931 27.2182 53.4187 27.1581 53.4457 27.0995C53.4457 27.0995 53.4457 27.0965 53.4472 27.095C53.6576 26.6142 53.907 26.1544 54.194 25.7202C54.197 25.7157 54.2 25.7112 54.203 25.7067C54.236 25.6571 54.2691 25.609 54.3022 25.5594C54.3067 25.5519 54.3112 25.5459 54.3172 25.5384C54.3502 25.4903 54.3833 25.4437 54.4178 25.3972C54.4224 25.3896 54.4284 25.3836 54.4329 25.3761C54.4674 25.3295 54.502 25.2815 54.5365 25.2364C54.5411 25.2319 54.5441 25.2259 54.5486 25.2214C54.7424 24.9659 54.9512 24.721 55.1706 24.4881L55.1736 24.4851C55.2112 24.4446 55.2502 24.404 55.2893 24.3649C55.2983 24.3559 55.3073 24.3469 55.3164 24.3364C55.3524 24.3003 55.3885 24.2643 55.4245 24.2282C55.4366 24.2162 55.4501 24.2042 55.4621 24.1921C55.4967 24.1576 55.5327 24.1245 55.5688 24.0915C55.5838 24.0779 55.5973 24.0644 55.6124 24.0509C55.6469 24.0178 55.683 23.9863 55.719 23.9547C55.7341 23.9412 55.7491 23.9277 55.7641 23.9142C55.8002 23.8826 55.8362 23.8511 55.8723 23.8195C55.8873 23.8075 55.9008 23.7955 55.9159 23.7834C55.9534 23.7519 55.991 23.7203 56.0301 23.6888C56.0406 23.6798 56.0526 23.6708 56.0631 23.6618C56.1998 23.5506 56.3396 23.4439 56.4823 23.3417C56.4898 23.3357 56.4973 23.3312 56.5049 23.3252C56.5424 23.2981 56.58 23.2726 56.6175 23.2471C56.6371 23.2335 56.6566 23.22 56.6761 23.2065C56.7107 23.1824 56.7453 23.1599 56.7813 23.1359C56.8039 23.1208 56.8264 23.1058 56.8504 23.0908C56.885 23.0682 56.918 23.0472 56.9526 23.0262C56.9766 23.0112 57.0022 22.9946 57.0262 22.9796C57.0593 22.9586 57.0938 22.939 57.1269 22.918C57.1524 22.903 57.1795 22.8864 57.205 22.8714C57.2381 22.8519 57.2711 22.8324 57.3042 22.8143C57.3312 22.7993 57.3583 22.7843 57.3868 22.7692C57.4199 22.7512 57.4529 22.7332 57.486 22.7152C57.5145 22.7001 57.5431 22.6851 57.5716 22.6701C57.6047 22.6536 57.6378 22.6355 57.6708 22.619C57.7009 22.604 57.7309 22.589 57.7625 22.5739C57.794 22.5589 57.8256 22.5424 57.8586 22.5273C57.9187 22.4988 57.9788 22.4703 58.0404 22.4432C58.069 22.4297 58.0975 22.4177 58.1261 22.4056C58.1621 22.3906 58.1967 22.3741 58.2328 22.3591C58.2628 22.347 58.2929 22.3335 58.3244 22.3215C58.359 22.3065 58.3935 22.2929 58.4281 22.2794C58.4596 22.2674 58.4897 22.2554 58.5212 22.2434C58.5558 22.2298 58.5904 22.2163 58.6264 22.2028C58.658 22.1908 58.6895 22.1803 58.7211 22.1682C58.7571 22.1562 58.7917 22.1427 58.8278 22.1307C58.8593 22.1202 58.8909 22.1096 58.9209 22.0991C58.957 22.0871 58.9945 22.0751 59.0306 22.0631C59.0621 22.0525 59.0922 22.0435 59.1237 22.0345C59.1613 22.0225 59.2004 22.012 59.2379 22C59.268 21.9909 59.298 21.9819 59.3281 21.9744C59.3687 21.9624 59.4107 21.9519 59.4513 21.9414C59.4783 21.9338 59.5069 21.9263 59.5339 21.9188C59.5865 21.9053 59.6391 21.8933 59.6917 21.8798C59.7082 21.8753 59.7248 21.8722 59.7413 21.8677C59.8104 21.8512 59.8795 21.8362 59.9501 21.8227C59.9727 21.8182 59.9952 21.8136 60.0178 21.8091C60.0658 21.8001 60.1139 21.7896 60.162 21.7821C60.1905 21.7776 60.2176 21.7731 60.2461 21.7671C60.2897 21.7596 60.3333 21.752 60.3769 21.746C60.4069 21.7415 60.437 21.737 60.467 21.7325C60.5091 21.7265 60.5511 21.7205 60.5932 21.7145C60.6233 21.71 60.6548 21.707 60.6849 21.7025C60.7269 21.6979 60.769 21.6919 60.8111 21.6874C60.8426 21.6844 60.8727 21.6814 60.9042 21.6784C60.9478 21.6739 60.9899 21.6709 61.0335 21.6664C61.0635 21.6634 61.0951 21.6619 61.1251 21.6589C61.1702 21.6559 61.2153 21.6529 61.2588 21.6499C61.2874 21.6484 61.3174 21.6469 61.346 21.6454C61.3956 21.6424 61.4451 21.6408 61.4947 21.6393C61.5188 21.6393 61.5428 21.6379 61.5684 21.6364C61.642 21.6349 61.7171 21.6333 61.7922 21.6333C66.8167 21.6333 70.8885 25.7067 70.8885 30.7296C70.8885 35.7526 66.8152 39.8259 61.7922 39.8259C57.8466 39.8259 54.487 37.3137 53.2278 33.8008C52.3429 38.083 49.9418 41.2202 49.8171 41.381L49.8096 41.3915C49.775 41.4351 49.739 41.4772 49.7044 41.5207C52.6719 44.8428 56.9887 46.9359 61.7937 46.9359C70.7443 46.9359 78 39.6801 78 30.7296C78 21.7791 70.7443 14.5234 61.7937 14.5234" fill="#0C31CD"/>
<path d="M25.9931 31.8565C24.8812 30.6004 23.5124 29.6929 21.9258 29.1565C20.3752 28.6336 18.3903 28.1648 16.0299 27.7651C14.3245 27.4481 12.9797 27.1581 12.0331 26.9012C11.1241 26.6548 10.3683 26.2731 9.78687 25.7668C9.23394 25.286 8.96499 24.6279 8.96499 23.7549C8.96499 22.6971 9.4488 21.8602 10.445 21.1961C11.055 20.7889 11.7792 20.5004 12.5981 20.3367C13.1525 20.2255 13.7625 20.1699 14.4116 20.1699C16.0915 20.1699 17.4603 20.571 18.479 21.3644C19.1371 21.8767 19.6314 22.5499 19.959 23.3763C20.0266 23.5626 20.2715 24.2733 20.2715 24.8277V27.7952C20.9687 27.9755 21.6102 28.1648 22.1932 28.3616C23.9211 28.9461 25.4101 29.9348 26.6211 31.3021C27.0103 31.7423 27.3393 32.2366 27.6113 32.7821C27.4596 32.1239 27.3799 31.4403 27.3799 30.7356C27.3799 30.7191 27.3799 30.7026 27.3799 30.6875V25.1087C27.3889 24.9118 27.4325 23.6512 27.0914 22.5529C27.0914 22.5499 27.0914 22.5484 27.0899 22.5469C26.5085 20.1879 25.1847 18.2692 23.1443 16.8358C20.88 15.2446 17.9411 14.4377 14.4101 14.4377C13.1916 14.4377 12.0196 14.5489 10.9303 14.7668C9.91609 14.9696 8.94395 15.2716 8.04244 15.6638C6.15827 16.4842 4.66176 17.6396 3.59196 19.0986C2.51616 20.5665 1.97074 22.2358 1.97074 24.0569C1.97074 26.2897 2.5432 28.0476 3.6746 29.2812C4.78647 30.4967 6.12522 31.3637 7.65178 31.8595C9.13928 32.3418 11.1121 32.8106 13.5206 33.2508C15.2185 33.5273 16.5693 33.8083 17.5354 34.0832C18.4685 34.3507 19.2558 34.7534 19.8793 35.2807C20.4713 35.7826 20.7583 36.4707 20.7583 37.3813C20.7583 38.4751 20.1979 39.3601 19.0454 40.0858C18.3678 40.5125 17.5639 40.8205 16.6549 41.0024C15.9758 41.1391 15.2215 41.2082 14.4131 41.2082C12.571 41.2082 11.0881 40.8055 10.0092 40.0092C8.94095 39.2219 8.26631 38.0574 8.00187 36.5474L7.94628 36.2258L0.961044 36.2213C0.961044 36.2213 0.915968 36.7006 1.00462 37.4684C1.01063 37.536 1.01664 37.6037 1.02415 37.6758L1.07073 37.9297C1.17891 38.5788 1.38175 39.3691 1.75438 40.2226C1.75588 40.2271 1.75888 40.2331 1.76039 40.2376C1.80246 40.3322 1.84453 40.4284 1.89111 40.5261C2.26974 41.3254 2.75355 42.0691 3.34254 42.7498C4.51301 44.1051 6.05009 45.1538 7.91022 45.869C9.75982 46.5797 11.949 46.9403 14.4161 46.9403C15.7068 46.9403 16.9569 46.8216 18.1304 46.5857C19.1641 46.3784 20.1678 46.0764 21.1099 45.6857C23.1308 44.8488 24.7475 43.6874 25.9165 42.2314C27.0974 40.7605 27.697 39.0882 27.697 37.2626C27.697 34.9532 27.1245 33.1366 25.9976 31.861" fill="#0C31CD"/>
<path d="M91.4079 30.192C90.6613 30.192 89.9679 30.0533 89.3279 29.776C88.6879 29.488 88.1439 29.0987 87.6959 28.608C87.2479 28.1173 86.9173 27.552 86.7039 26.912L88.3039 26.24C88.5919 26.976 89.0133 27.5413 89.5679 27.936C90.1226 28.3307 90.7626 28.528 91.4879 28.528C91.9146 28.528 92.2879 28.464 92.6079 28.336C92.9279 28.1973 93.1733 28.0053 93.3439 27.76C93.5253 27.5147 93.6159 27.232 93.6159 26.912C93.6159 26.4747 93.4933 26.128 93.2479 25.872C93.0026 25.616 92.6399 25.4133 92.1599 25.264L89.9199 24.56C89.0239 24.2827 88.3413 23.8613 87.8719 23.296C87.4026 22.72 87.1679 22.048 87.1679 21.28C87.1679 20.608 87.3333 20.0213 87.6639 19.52C87.9946 19.008 88.4479 18.608 89.0239 18.32C89.6106 18.032 90.2773 17.888 91.0239 17.888C91.7386 17.888 92.3893 18.016 92.9759 18.272C93.5626 18.5173 94.0639 18.8587 94.4799 19.296C94.9066 19.7333 95.2159 20.24 95.4079 20.816L93.8399 21.504C93.6053 20.8747 93.2373 20.3893 92.7359 20.048C92.2453 19.7067 91.6746 19.536 91.0239 19.536C90.6293 19.536 90.2826 19.6053 89.9839 19.744C89.6853 19.872 89.4506 20.064 89.2799 20.32C89.1199 20.5653 89.0399 20.8533 89.0399 21.184C89.0399 21.568 89.1626 21.9093 89.4079 22.208C89.6533 22.5067 90.0266 22.7307 90.5279 22.88L92.6079 23.536C93.5573 23.824 94.2719 24.24 94.7519 24.784C95.2319 25.3173 95.4719 25.984 95.4719 26.784C95.4719 27.4453 95.2959 28.032 94.9439 28.544C94.6026 29.056 94.1279 29.4613 93.5199 29.76C92.9119 30.048 92.2079 30.192 91.4079 30.192ZM101.841 30.192C101.009 30.192 100.247 29.9947 99.5533 29.6C98.8706 29.2053 98.3266 28.6667 97.9213 27.984C97.516 27.3013 97.3133 26.528 97.3133 25.664C97.3133 24.7893 97.516 24.016 97.9213 23.344C98.3266 22.6613 98.8706 22.128 99.5533 21.744C100.236 21.3493 100.999 21.152 101.841 21.152C102.695 21.152 103.457 21.3493 104.129 21.744C104.812 22.128 105.351 22.6613 105.745 23.344C106.151 24.016 106.353 24.7893 106.353 25.664C106.353 26.5387 106.151 27.3173 105.745 28C105.34 28.6827 104.796 29.2213 104.113 29.616C103.431 30 102.673 30.192 101.841 30.192ZM101.841 28.512C102.353 28.512 102.807 28.3893 103.201 28.144C103.596 27.8987 103.905 27.5627 104.129 27.136C104.364 26.6987 104.481 26.208 104.481 25.664C104.481 25.12 104.364 24.6347 104.129 24.208C103.905 23.7813 103.596 23.4453 103.201 23.2C102.807 22.9547 102.353 22.832 101.841 22.832C101.34 22.832 100.887 22.9547 100.481 23.2C100.087 23.4453 99.772 23.7813 99.5373 24.208C99.3133 24.6347 99.2013 25.12 99.2013 25.664C99.2013 26.208 99.3133 26.6987 99.5373 27.136C99.772 27.5627 100.087 27.8987 100.481 28.144C100.887 28.3893 101.34 28.512 101.841 28.512ZM112.992 30.192C112.32 30.192 111.707 30.0533 111.152 29.776C110.608 29.4987 110.187 29.0987 109.888 28.576L110.096 28.24V30H108.368V17.888H110.176V23.136L109.888 22.72C110.208 22.2293 110.635 21.8453 111.168 21.568C111.702 21.2907 112.31 21.152 112.992 21.152C113.814 21.152 114.55 21.3493 115.2 21.744C115.862 22.1387 116.379 22.6773 116.752 23.36C117.136 24.0427 117.328 24.8107 117.328 25.664C117.328 26.5173 117.136 27.2853 116.752 27.968C116.379 28.6507 115.867 29.1947 115.216 29.6C114.566 29.9947 113.824 30.192 112.992 30.192ZM112.816 28.512C113.328 28.512 113.782 28.3893 114.176 28.144C114.571 27.8987 114.88 27.5627 115.104 27.136C115.339 26.6987 115.456 26.208 115.456 25.664C115.456 25.12 115.339 24.6347 115.104 24.208C114.88 23.7813 114.571 23.4453 114.176 23.2C113.782 22.9547 113.328 22.832 112.816 22.832C112.315 22.832 111.862 22.9547 111.456 23.2C111.062 23.4453 110.747 23.7813 110.512 24.208C110.288 24.6347 110.176 25.12 110.176 25.664C110.176 26.208 110.288 26.6987 110.512 27.136C110.747 27.5627 111.062 27.8987 111.456 28.144C111.862 28.3893 112.315 28.512 112.816 28.512ZM121.929 30.192C121.343 30.192 120.825 30.0907 120.377 29.888C119.94 29.6747 119.599 29.3867 119.353 29.024C119.108 28.6507 118.985 28.2133 118.985 27.712C118.985 27.2427 119.087 26.8213 119.289 26.448C119.503 26.0747 119.828 25.76 120.265 25.504C120.703 25.248 121.252 25.0667 121.913 24.96L124.921 24.464V25.888L122.265 26.352C121.785 26.4373 121.433 26.592 121.209 26.816C120.985 27.0293 120.873 27.3067 120.873 27.648C120.873 27.9787 120.996 28.2507 121.241 28.464C121.497 28.6667 121.823 28.768 122.217 28.768C122.708 28.768 123.135 28.6613 123.497 28.448C123.871 28.2347 124.159 27.952 124.361 27.6C124.564 27.2373 124.665 26.8373 124.665 26.4V24.176C124.665 23.7493 124.505 23.4027 124.185 23.136C123.876 22.8587 123.46 22.72 122.937 22.72C122.457 22.72 122.036 22.848 121.673 23.104C121.321 23.3493 121.06 23.6693 120.889 24.064L119.385 23.312C119.545 22.8853 119.807 22.512 120.169 22.192C120.532 21.8613 120.953 21.6053 121.433 21.424C121.924 21.2427 122.441 21.152 122.985 21.152C123.668 21.152 124.271 21.28 124.793 21.536C125.327 21.792 125.737 22.1493 126.025 22.608C126.324 23.056 126.473 23.5787 126.473 24.176V30H124.745V28.432L125.113 28.48C124.911 28.832 124.649 29.136 124.329 29.392C124.02 29.648 123.663 29.8453 123.257 29.984C122.863 30.1227 122.42 30.192 121.929 30.192ZM132.425 30.096C131.518 30.096 130.814 29.84 130.313 29.328C129.812 28.816 129.561 28.096 129.561 27.168V22.976H128.041V21.344H128.281C128.686 21.344 129.001 21.2267 129.225 20.992C129.449 20.7573 129.561 20.4373 129.561 20.032V19.36H131.369V21.344H133.337V22.976H131.369V27.088C131.369 27.3867 131.417 27.6427 131.513 27.856C131.609 28.0587 131.764 28.2187 131.977 28.336C132.19 28.4427 132.468 28.496 132.809 28.496C132.894 28.496 132.99 28.4907 133.097 28.48C133.204 28.4693 133.305 28.4587 133.401 28.448V30C133.252 30.0213 133.086 30.0427 132.905 30.064C132.724 30.0853 132.564 30.096 132.425 30.096ZM138.638 30V18.08H143.662C144.409 18.08 145.054 18.2133 145.598 18.48C146.142 18.736 146.558 19.1093 146.846 19.6C147.134 20.08 147.278 20.6507 147.278 21.312C147.278 21.888 147.129 22.416 146.83 22.896C146.542 23.3653 146.089 23.7387 145.47 24.016V23.216C146.014 23.4293 146.457 23.7013 146.798 24.032C147.14 24.352 147.385 24.7147 147.534 25.12C147.694 25.5253 147.774 25.952 147.774 26.4C147.774 27.52 147.406 28.4 146.67 29.04C145.945 29.68 144.948 30 143.678 30H138.638ZM140.526 28.32H143.822C144.452 28.32 144.953 28.1493 145.326 27.808C145.7 27.456 145.886 26.992 145.886 26.416C145.886 25.8293 145.7 25.3653 145.326 25.024C144.953 24.672 144.452 24.496 143.822 24.496H140.526V28.32ZM140.526 22.832H143.71C144.222 22.832 144.633 22.688 144.942 22.4C145.252 22.1013 145.406 21.712 145.406 21.232C145.406 20.752 145.252 20.3787 144.942 20.112C144.633 19.8453 144.222 19.712 143.71 19.712H140.526V22.832ZM149.79 30V21.344H151.598V30H149.79ZM149.79 20.16V18.08H151.598V20.16H149.79ZM157.162 30.192C156.277 30.192 155.498 29.9733 154.826 29.536C154.165 29.0987 153.701 28.512 153.434 27.776L154.826 27.12C155.061 27.6107 155.381 28 155.786 28.288C156.202 28.576 156.661 28.72 157.162 28.72C157.589 28.72 157.936 28.624 158.202 28.432C158.469 28.24 158.602 27.9787 158.602 27.648C158.602 27.4347 158.544 27.264 158.426 27.136C158.309 26.9973 158.16 26.8853 157.978 26.8C157.808 26.7147 157.632 26.6507 157.45 26.608L156.09 26.224C155.344 26.0107 154.784 25.6907 154.41 25.264C154.048 24.8267 153.866 24.32 153.866 23.744C153.866 23.2213 154 22.768 154.266 22.384C154.533 21.9893 154.901 21.6853 155.37 21.472C155.84 21.2587 156.368 21.152 156.954 21.152C157.744 21.152 158.448 21.3493 159.066 21.744C159.685 22.128 160.122 22.6667 160.378 23.36L158.986 24.016C158.816 23.6 158.544 23.2693 158.17 23.024C157.808 22.7787 157.397 22.656 156.938 22.656C156.544 22.656 156.229 22.752 155.994 22.944C155.76 23.1253 155.642 23.3653 155.642 23.664C155.642 23.8667 155.696 24.0373 155.802 24.176C155.909 24.304 156.048 24.4107 156.218 24.496C156.389 24.5707 156.565 24.6347 156.746 24.688L158.154 25.104C158.869 25.3067 159.418 25.6267 159.802 26.064C160.186 26.4907 160.378 27.0027 160.378 27.6C160.378 28.112 160.24 28.5653 159.962 28.96C159.696 29.344 159.322 29.648 158.842 29.872C158.362 30.0853 157.802 30.192 157.162 30.192ZM162.4 30V21.344H164.128V23.04L163.92 22.816C164.133 22.272 164.474 21.8613 164.944 21.584C165.413 21.296 165.957 21.152 166.576 21.152C167.216 21.152 167.781 21.2907 168.272 21.568C168.762 21.8453 169.146 22.2293 169.424 22.72C169.701 23.2107 169.84 23.776 169.84 24.416V30H168.048V24.896C168.048 24.4587 167.968 24.0907 167.808 23.792C167.648 23.4827 167.418 23.248 167.12 23.088C166.832 22.9173 166.501 22.832 166.128 22.832C165.754 22.832 165.418 22.9173 165.12 23.088C164.832 23.248 164.608 23.4827 164.448 23.792C164.288 24.1013 164.208 24.4693 164.208 24.896V30H162.4ZM172.025 30V21.344H173.833V30H172.025ZM172.025 20.16V18.08H173.833V20.16H172.025ZM179.397 30.192C178.511 30.192 177.733 29.9733 177.061 29.536C176.399 29.0987 175.935 28.512 175.669 27.776L177.061 27.12C177.295 27.6107 177.615 28 178.021 28.288C178.437 28.576 178.895 28.72 179.397 28.72C179.823 28.72 180.17 28.624 180.437 28.432C180.703 28.24 180.837 27.9787 180.837 27.648C180.837 27.4347 180.778 27.264 180.661 27.136C180.543 26.9973 180.394 26.8853 180.213 26.8C180.042 26.7147 179.866 26.6507 179.685 26.608L178.325 26.224C177.578 26.0107 177.018 25.6907 176.645 25.264C176.282 24.8267 176.101 24.32 176.101 23.744C176.101 23.2213 176.234 22.768 176.501 22.384C176.767 21.9893 177.135 21.6853 177.605 21.472C178.074 21.2587 178.602 21.152 179.189 21.152C179.978 21.152 180.682 21.3493 181.301 21.744C181.919 22.128 182.357 22.6667 182.613 23.36L181.221 24.016C181.05 23.6 180.778 23.2693 180.405 23.024C180.042 22.7787 179.631 22.656 179.173 22.656C178.778 22.656 178.463 22.752 178.229 22.944C177.994 23.1253 177.877 23.3653 177.877 23.664C177.877 23.8667 177.93 24.0373 178.037 24.176C178.143 24.304 178.282 24.4107 178.453 24.496C178.623 24.5707 178.799 24.6347 178.981 24.688L180.389 25.104C181.103 25.3067 181.653 25.6267 182.037 26.064C182.421 26.4907 182.613 27.0027 182.613 27.6C182.613 28.112 182.474 28.5653 182.197 28.96C181.93 29.344 181.557 29.648 181.077 29.872C180.597 30.0853 180.037 30.192 179.397 30.192ZM92.8159 48.192C91.9733 48.192 91.1893 48.0373 90.4639 47.728C89.7493 47.4187 89.1199 46.992 88.5759 46.448C88.0426 45.8933 87.6266 45.2427 87.3279 44.496C87.0293 43.7493 86.8799 42.928 86.8799 42.032C86.8799 41.1467 87.0239 40.3307 87.3119 39.584C87.6106 38.8267 88.0266 38.176 88.5599 37.632C89.0933 37.0773 89.7173 36.6507 90.4319 36.352C91.1466 36.0427 91.9306 35.888 92.7839 35.888C93.6266 35.888 94.3786 36.032 95.0399 36.32C95.7119 36.608 96.2773 36.9867 96.7359 37.456C97.1946 37.9147 97.5253 38.416 97.7279 38.96L96.0479 39.776C95.8026 39.1253 95.3973 38.6027 94.8319 38.208C94.2666 37.8027 93.5839 37.6 92.7839 37.6C91.9946 37.6 91.2959 37.7867 90.6879 38.16C90.0799 38.5333 89.6053 39.0507 89.2639 39.712C88.9333 40.3733 88.7679 41.1467 88.7679 42.032C88.7679 42.9173 88.9386 43.696 89.2799 44.368C89.6319 45.0293 90.1119 45.5467 90.7199 45.92C91.3279 46.2827 92.0266 46.464 92.8159 46.464C93.4773 46.464 94.0799 46.3307 94.6239 46.064C95.1786 45.7867 95.6213 45.4027 95.9519 44.912C96.2826 44.4107 96.4479 43.8293 96.4479 43.168V42.352L97.2959 43.12H92.7839V41.52H98.3199V42.64C98.3199 43.5147 98.1706 44.2987 97.8719 44.992C97.5733 45.6747 97.1679 46.256 96.6559 46.736C96.1439 47.216 95.5573 47.5787 94.8959 47.824C94.2346 48.0693 93.5413 48.192 92.8159 48.192ZM100.322 48V39.344H102.05V41.088L101.89 40.832C102.082 40.2667 102.391 39.8613 102.818 39.616C103.244 39.36 103.756 39.232 104.354 39.232H104.882V40.88H104.13C103.532 40.88 103.047 41.0667 102.674 41.44C102.311 41.8027 102.13 42.3253 102.13 43.008V48H100.322ZM110.544 48.192C109.712 48.192 108.95 47.9947 108.256 47.6C107.574 47.2053 107.03 46.6667 106.624 45.984C106.219 45.3013 106.016 44.528 106.016 43.664C106.016 42.7893 106.219 42.016 106.624 41.344C107.03 40.6613 107.574 40.128 108.256 39.744C108.939 39.3493 109.702 39.152 110.544 39.152C111.398 39.152 112.16 39.3493 112.832 39.744C113.515 40.128 114.054 40.6613 114.448 41.344C114.854 42.016 115.056 42.7893 115.056 43.664C115.056 44.5387 114.854 45.3173 114.448 46C114.043 46.6827 113.499 47.2213 112.816 47.616C112.134 48 111.376 48.192 110.544 48.192ZM110.544 46.512C111.056 46.512 111.51 46.3893 111.904 46.144C112.299 45.8987 112.608 45.5627 112.832 45.136C113.067 44.6987 113.184 44.208 113.184 43.664C113.184 43.12 113.067 42.6347 112.832 42.208C112.608 41.7813 112.299 41.4453 111.904 41.2C111.51 40.9547 111.056 40.832 110.544 40.832C110.043 40.832 109.59 40.9547 109.184 41.2C108.79 41.4453 108.475 41.7813 108.24 42.208C108.016 42.6347 107.904 43.12 107.904 43.664C107.904 44.208 108.016 44.6987 108.24 45.136C108.475 45.5627 108.79 45.8987 109.184 46.144C109.59 46.3893 110.043 46.512 110.544 46.512ZM120.16 48.192C119.509 48.192 118.938 48.048 118.448 47.76C117.957 47.4613 117.573 47.0507 117.296 46.528C117.029 45.9947 116.896 45.3813 116.896 44.688V39.344H118.704V44.528C118.704 44.9227 118.784 45.2693 118.944 45.568C119.104 45.8667 119.328 46.1013 119.616 46.272C119.904 46.432 120.234 46.512 120.608 46.512C120.992 46.512 121.328 46.4267 121.616 46.256C121.904 46.0853 122.128 45.8453 122.288 45.536C122.458 45.2267 122.544 44.864 122.544 44.448V39.344H124.336V48H122.624V46.304L122.816 46.528C122.613 47.0613 122.277 47.472 121.808 47.76C121.338 48.048 120.789 48.192 120.16 48.192ZM126.697 51.2V39.344H128.425V41.136L128.217 40.72C128.537 40.2293 128.963 39.8453 129.497 39.568C130.03 39.2907 130.638 39.152 131.321 39.152C132.142 39.152 132.878 39.3493 133.529 39.744C134.19 40.1387 134.707 40.6773 135.081 41.36C135.465 42.0427 135.657 42.8107 135.657 43.664C135.657 44.5173 135.465 45.2853 135.081 45.968C134.707 46.6507 134.195 47.1947 133.545 47.6C132.894 47.9947 132.153 48.192 131.321 48.192C130.649 48.192 130.035 48.0533 129.481 47.776C128.937 47.4987 128.515 47.0987 128.217 46.576L128.505 46.24V51.2H126.697ZM131.145 46.512C131.657 46.512 132.11 46.3893 132.505 46.144C132.899 45.8987 133.209 45.5627 133.433 45.136C133.667 44.6987 133.785 44.208 133.785 43.664C133.785 43.12 133.667 42.6347 133.433 42.208C133.209 41.7813 132.899 41.4453 132.505 41.2C132.11 40.9547 131.657 40.832 131.145 40.832C130.643 40.832 130.19 40.9547 129.785 41.2C129.39 41.4453 129.075 41.7813 128.841 42.208C128.617 42.6347 128.505 43.12 128.505 43.664C128.505 44.208 128.617 44.6987 128.841 45.136C129.075 45.5627 129.39 45.8987 129.785 46.144C130.19 46.3893 130.643 46.512 131.145 46.512Z" fill="#737373"/>
</svg>
